<svg width="38" height="41" viewBox="0 0 38 41" fill="none" xmlns="http://www.w3.org/2000/svg">
<path d="M19.9 12.8911L16.649 7.35247C16.5455 7.17625 16.3752 7.04766 16.1753 6.995C15.9755 6.94234 15.7626 6.96991 15.5835 7.07165C15.4043 7.17339 15.2736 7.34096 15.2201 7.5375C15.1665 7.73404 15.1945 7.94346 15.298 8.11968L18.549 13.6584C18.6524 13.8346 18.8228 13.9632 19.0226 14.0158C19.2224 14.0685 19.4353 14.0409 19.6145 13.9392C19.7936 13.8374 19.9243 13.6699 19.9779 13.4733C20.0314 13.2768 20.0034 13.0674 19.9 12.8911Z" fill="white"/>
<path d="M21.2589 15.2587C21.1312 15.1333 20.9633 15.0554 20.7837 15.0381C20.6041 15.0209 20.4241 15.0654 20.2741 15.1641C20.1242 15.2629 20.0137 15.4096 19.9614 15.5795C19.9092 15.7494 19.9184 15.9318 19.9875 16.0957C20.0566 16.2596 20.1814 16.3949 20.3406 16.4785C20.4997 16.5621 20.6834 16.5888 20.8604 16.5541C21.0373 16.5195 21.1966 16.4255 21.311 16.2883C21.4254 16.1511 21.4879 15.9791 21.4879 15.8016C21.4873 15.598 21.4051 15.4029 21.2589 15.2587Z" fill="white"/>
<path d="M37.412 30.7908V27.717C37.412 27.5136 37.3298 27.3184 37.1835 27.1745C37.0373 27.0307 36.8389 26.9498 36.632 26.9498H18.532C18.3251 26.9498 18.1267 27.0307 17.9804 27.1745C17.8341 27.3184 17.752 27.5136 17.752 27.717V30.7869C17.752 30.9904 17.8341 31.1855 17.9804 31.3294C18.1267 31.4733 18.3251 31.5541 18.532 31.5541H21.553C18.778 32.7029 15.6591 32.7533 12.8473 31.6947C10.0355 30.6361 7.74791 28.5502 6.46201 25.8725C5.17611 23.1948 4.99123 20.1321 5.94596 17.3235C6.90068 14.5149 8.92125 12.1775 11.586 10.799L17.016 20.0498C17.2638 20.4723 17.6418 20.8064 18.0953 21.0037C18.5489 21.201 19.0544 21.2514 19.539 21.1475L20.984 23.6066C21.086 23.7815 21.2224 23.9348 21.3851 24.0575C21.5478 24.1803 21.7337 24.2701 21.932 24.3216C22.0644 24.3567 22.2009 24.3746 22.338 24.3748C22.6113 24.3745 22.8797 24.3032 23.116 24.1682L25.516 22.8029C25.8742 22.5991 26.1354 22.2638 26.2425 21.8706C26.3496 21.4774 26.2936 21.0585 26.087 20.7059L24.643 18.2469C24.9761 17.8855 25.184 17.4295 25.2368 16.9445C25.2897 16.4595 25.1847 15.9705 24.937 15.5479L18.369 4.35147C18.216 4.08909 18.0116 3.85915 17.7677 3.67495C17.5238 3.49076 17.2452 3.35596 16.948 3.27836C16.783 3.23485 16.6136 3.20913 16.443 3.20164L15.643 1.83934C15.5128 1.6176 15.3395 1.42325 15.1329 1.2674C14.9264 1.11155 14.6906 0.997244 14.4392 0.931023C14.1877 0.864801 13.9254 0.847956 13.6673 0.88145C13.4092 0.914944 13.1604 0.99812 12.935 1.12623L10.322 2.61049C9.86711 2.86948 9.53523 3.29534 9.39913 3.79467C9.26304 4.29399 9.33382 4.82603 9.59597 5.2741L10.219 6.33541C10.2 6.34229 10.181 6.34918 10.163 6.35705C7.9396 7.35249 5.97115 8.82514 4.40216 10.6668C2.83317 12.5085 1.7035 14.6725 1.09609 16.9999C0.488688 19.3272 0.418978 21.7589 0.892083 24.1162C1.36519 26.4735 2.36909 28.6967 3.83008 30.6224C5.29106 32.5481 7.17202 34.1276 9.33482 35.2447C11.4976 36.3618 13.8874 36.9882 16.3285 37.0779C18.7697 37.1676 21.2003 36.7184 23.4418 35.7632C25.6834 34.808 27.6789 33.3711 29.282 31.558H31.701C31.8667 32.5823 32.3574 33.5289 33.1029 34.2624C33.8484 34.9959 34.8106 35.4787 35.852 35.642V38.6184H27.582C27.3751 38.6184 27.1767 38.6992 27.0304 38.8431C26.8842 38.987 26.802 39.1821 26.802 39.3856C26.802 39.589 26.8842 39.7842 27.0304 39.9281C27.1767 40.072 27.3751 40.1528 27.582 40.1528H36.632C36.8389 40.1528 37.0373 40.072 37.1835 39.9281C37.3298 39.7842 37.412 39.589 37.412 39.3856V34.9348C37.412 34.7313 37.3298 34.5361 37.1835 34.3923C37.0373 34.2484 36.8389 34.1675 36.632 34.1675C35.8575 34.1664 35.1062 33.9081 34.4996 33.4345C33.893 32.9608 33.4668 32.2997 33.29 31.558H36.632C36.8389 31.558 37.0373 31.4772 37.1835 31.3333C37.3298 31.1894 37.412 30.9943 37.412 30.7908ZM24.739 21.4741L22.339 22.8393L20.951 20.4787L23.351 19.1134L24.739 21.4741ZM15.952 4.83738C16.0706 4.77153 16.2048 4.73761 16.341 4.73901C16.4085 4.73936 16.4757 4.74828 16.541 4.76557C16.6401 4.79142 16.7331 4.83638 16.8145 4.89784C16.8958 4.9593 16.964 5.03604 17.015 5.1236L23.587 16.32C23.6382 16.4073 23.6715 16.5037 23.6849 16.6037C23.6983 16.7036 23.6915 16.8052 23.6649 16.9026C23.6384 16.9999 23.5925 17.0912 23.5301 17.1712C23.4676 17.2511 23.3898 17.3182 23.301 17.3685L19.43 19.5669C19.3412 19.6173 19.2432 19.65 19.1416 19.6632C19.04 19.6764 18.9367 19.6697 18.8377 19.6436C18.7387 19.6174 18.6459 19.5724 18.5646 19.5109C18.4833 19.4495 18.4151 19.3729 18.364 19.2856L12.575 9.41213L12.243 8.84656L11.795 8.08328C11.6917 7.9069 11.6638 7.69741 11.7174 7.50081C11.771 7.30422 11.9018 7.1366 12.081 7.03475L12.166 6.98656L15.952 4.83738ZM11.101 3.93934L13.714 2.45508C13.8108 2.40014 13.9258 2.38524 14.0338 2.41364C14.1418 2.44204 14.2339 2.51142 14.29 2.60656L14.907 3.65705L13.235 4.60623L11.563 5.55541L10.947 4.50393C10.8917 4.40887 10.8769 4.2962 10.9058 4.19045C10.9346 4.08471 11.0048 3.99445 11.101 3.93934ZM16.942 35.5525C13.6393 35.5497 10.4324 34.4605 7.83173 32.4581C5.23106 30.4557 3.38605 27.6552 2.59033 24.5024C1.79461 21.3495 2.09391 18.0255 3.44061 15.0592C4.7873 12.093 7.10399 9.65508 10.022 8.13344L10.801 9.46525C8.17826 10.8159 6.09162 12.9924 4.87459 15.6469C3.65755 18.3014 3.38038 21.2805 4.08739 24.1082C4.79439 26.9358 6.44475 29.4487 8.77467 31.2452C11.1046 33.0416 13.9795 34.0179 16.94 34.018C19.7224 34.0275 22.4359 33.1663 24.688 31.559H27.124C24.3786 34.1283 20.7325 35.5585 16.943 35.5525H16.942ZM35.851 30.0226H19.312V28.4882H35.852L35.851 30.0226Z" fill="white"/>
<path d="M24.579 38.8436C24.4513 38.7182 24.2834 38.6403 24.1038 38.623C23.9242 38.6058 23.7441 38.6503 23.5942 38.7491C23.4443 38.8478 23.3337 38.9945 23.2815 39.1644C23.2292 39.3343 23.2384 39.5167 23.3076 39.6806C23.3767 39.8446 23.5015 39.9798 23.6606 40.0634C23.8198 40.147 24.0035 40.1737 24.1804 40.1391C24.3574 40.1044 24.5166 40.0104 24.631 39.8732C24.7455 39.736 24.808 39.564 24.808 39.3866C24.8074 39.183 24.7251 38.9878 24.579 38.8436Z" fill="white"/>
<path d="M20.17 38.6203H6.20405V35.3646C6.20405 35.1611 6.12186 34.966 5.97558 34.8221C5.82931 34.6782 5.63091 34.5974 5.42404 34.5974C5.21717 34.5974 5.01878 34.6782 4.8725 34.8221C4.72622 34.966 4.64404 35.1611 4.64404 35.3646V39.3846C4.64404 39.4853 4.66422 39.5851 4.70341 39.6782C4.74261 39.7713 4.80007 39.8558 4.8725 39.9271C4.94493 39.9983 5.03091 40.0549 5.12555 40.0934C5.22018 40.132 5.32161 40.1518 5.42404 40.1518H20.17C20.3769 40.1518 20.5753 40.071 20.7216 39.9271C20.8678 39.7832 20.95 39.5881 20.95 39.3846C20.95 39.1811 20.8678 38.986 20.7216 38.8421C20.5753 38.6982 20.3769 38.6174 20.17 38.6174V38.6203Z" fill="white"/>
</svg>
