<svg width="25" height="25" viewBox="0 0 25 25" fill="none" xmlns="http://www.w3.org/2000/svg">
<path d="M24.5449 12.3327C24.5449 9.95933 23.8411 7.63925 22.5226 5.66586C21.204 3.69248 19.3298 2.15441 17.1371 1.24615C14.9444 0.337902 12.5316 0.100262 10.2038 0.563285C7.87607 1.02631 5.73788 2.1692 4.05965 3.84743C2.38142 5.52566 1.23853 7.66385 0.775504 9.99162C0.312481 12.3194 0.550121 14.7322 1.45837 16.9249C2.36662 19.1176 3.90469 20.9918 5.87808 22.3103C7.85147 23.6289 10.1716 24.3327 12.5449 24.3327C14.121 24.3336 15.6819 24.0239 17.1382 23.4211C18.5945 22.8184 19.9178 21.9345 21.0323 20.82C22.1467 19.7056 23.0306 18.3823 23.6334 16.926C24.2361 15.4697 24.5458 13.9088 24.5449 12.3327ZM12.5449 1.73871C14.4672 1.74054 16.3527 2.26505 17.9998 3.25611C19.6469 4.24716 20.9935 5.66744 21.8955 7.36494C22.7974 9.06244 23.2208 10.9733 23.1203 12.8929C23.0198 14.8125 22.3992 16.6687 21.3249 18.2627C20.202 17.0576 18.843 16.0965 17.3326 15.4394C15.8222 14.7823 14.1926 14.4432 12.5454 14.4432C10.8982 14.4432 9.26869 14.7823 7.75825 15.4394C6.24781 16.0965 4.88883 17.0576 3.76593 18.2627C2.69169 16.6687 2.07109 14.8127 1.97055 12.8931C1.87002 10.9736 2.29332 9.06285 3.19516 7.36538C4.09701 5.66791 5.44345 4.24761 7.09038 3.25649C8.73732 2.26537 10.6228 1.74072 12.5449 1.73871ZM4.64493 19.3877C5.63841 18.2751 6.8557 17.3849 8.2171 16.7753C9.57851 16.1658 11.0533 15.8507 12.5449 15.8507C14.0365 15.8507 15.5113 16.1658 16.8727 16.7753C18.2342 17.3849 19.4514 18.2751 20.4449 19.3877C19.452 20.5013 18.235 21.3924 16.8735 22.0026C15.512 22.6128 14.0369 22.9282 12.5449 22.9282C11.053 22.9282 9.57787 22.6128 8.21639 22.0026C6.8549 21.3924 5.6378 20.5013 4.64493 19.3877Z" fill="#3FABF3"/>
<path d="M12.5447 13.0357C13.6632 13.0344 14.7356 12.5894 15.5265 11.7985C16.3174 11.0076 16.7623 9.93523 16.7637 8.81669V7.41069C16.7723 6.85125 16.6695 6.29567 16.4614 5.77631C16.2533 5.25695 15.9439 4.78418 15.5513 4.38551C15.1587 3.98684 14.6908 3.67024 14.1747 3.45414C13.6586 3.23803 13.1047 3.12674 12.5452 3.12674C11.9856 3.12674 11.4317 3.23803 10.9156 3.45414C10.3995 3.67024 9.93158 3.98684 9.539 4.38551C9.14642 4.78418 8.83707 5.25695 8.62893 5.77631C8.4208 6.29567 8.31806 6.85125 8.32667 7.41069V8.81669C8.32799 9.93506 8.77278 11.0073 9.56349 11.7982C10.3542 12.5891 11.4263 13.0341 12.5447 13.0357ZM9.73266 7.41069C9.74656 6.67396 10.049 5.97208 10.5749 5.45597C11.1009 4.93986 11.8083 4.65073 12.5452 4.65073C13.282 4.65073 13.9895 4.93986 14.5154 5.45597C15.0414 5.97208 15.3438 6.67396 15.3577 7.41069V8.81669C15.3438 9.55343 15.0414 10.2553 14.5154 10.7714C13.9895 11.2875 13.282 11.5767 12.5452 11.5767C11.8083 11.5767 11.1009 11.2875 10.5749 10.7714C10.049 10.2553 9.74656 9.55343 9.73266 8.81669V7.41069Z" fill="#3FABF3"/>
</svg>
