<svg width="75" height="67" viewBox="0 0 75 67" fill="none" xmlns="http://www.w3.org/2000/svg">
<path d="M32.426 66.864H31.104C30.7536 66.8643 30.4174 66.7254 30.1693 66.4779C29.9212 66.2304 29.7815 65.8945 29.781 65.544V65.306C29.7809 65.0911 29.8333 64.8794 29.9334 64.6893C30.0336 64.4992 30.1786 64.3364 30.3559 64.2149C30.5332 64.0935 30.7374 64.0171 30.9509 63.9924C31.1644 63.9676 31.3807 63.9953 31.581 64.073C31.8512 64.174 32.1376 64.2241 32.426 64.221C32.7705 64.2305 33.0976 64.374 33.3379 64.621C33.5782 64.8679 33.7126 65.1989 33.7126 65.5435C33.7126 65.8881 33.5782 66.2191 33.3379 66.4661C33.0976 66.7131 32.7705 66.8565 32.426 66.866V66.864Z" fill="white"/>
<path d="M43.841 19.252L47.73 21.196C47.91 21.281 48.1065 21.325 48.3055 21.325C48.5045 21.325 48.701 21.281 48.881 21.196L52.755 19.252H43.841ZM69.461 19.252H58.361L56.602 21.897H68.135V63.865C68.056 63.825 67.99 63.772 67.923 63.733C67.856 63.694 67.83 63.654 67.778 63.614C67.7131 63.5603 67.6513 63.5029 67.593 63.442C67.3444 63.1995 67.1472 62.9093 67.0132 62.5889C66.8792 62.2685 66.8111 61.9243 66.813 61.577V37.769C66.8119 37.4185 66.6722 37.0826 66.4243 36.8347C66.1765 36.5868 65.8406 36.4471 65.49 36.446H44.872L41.301 32.862C41.0489 32.6182 40.7127 32.4807 40.362 32.478H32.426V23.578C31.553 23.247 30.667 22.93 29.781 22.586V33.802C29.7821 34.1526 29.9218 34.4885 30.1697 34.7363C30.4176 34.9842 30.7534 35.124 31.104 35.125H39.82L43.391 38.709C43.6431 38.9528 43.9793 39.0903 44.33 39.093H64.17V61.578C64.1679 61.8171 64.1857 62.0559 64.223 62.292C64.2486 62.4886 64.2884 62.6831 64.342 62.874C64.3491 62.9284 64.3625 62.9818 64.382 63.033C64.418 63.1636 64.4621 63.2919 64.514 63.417C64.5543 63.5433 64.6028 63.6669 64.659 63.787C64.7261 63.9321 64.8012 64.0733 64.884 64.21V64.223C65.3458 65.0282 66.0123 65.697 66.816 66.1615C67.6196 66.626 68.5318 66.8697 69.46 66.868C69.8102 66.8664 70.1456 66.7265 70.3931 66.4787C70.6405 66.2308 70.78 65.8952 70.781 65.545V20.575C70.78 20.2248 70.6405 19.8892 70.3931 19.6414C70.1456 19.3935 69.8102 19.2536 69.46 19.252H69.461Z" fill="white"/>
<path d="M73.4289 32.478H69.4609C69.1104 32.4791 68.7745 32.6188 68.5266 32.8667C68.2787 33.1146 68.139 33.4505 68.1379 33.801V65.545C68.139 65.8956 68.2787 66.2315 68.5266 66.4794C68.7745 66.7273 69.1104 66.867 69.4609 66.868C70.1558 66.8683 70.844 66.7316 71.486 66.4658C72.1281 66.2 72.7115 65.8103 73.2028 65.3189C73.6942 64.8275 74.0839 64.2442 74.3497 63.6021C74.6155 62.9601 74.7522 62.2719 74.7519 61.577V33.801C74.7509 33.4505 74.6112 33.1146 74.3633 32.8667C74.1154 32.6188 73.7795 32.4791 73.4289 32.478ZM72.1059 61.578C72.1076 62.0424 71.986 62.4988 71.7535 62.9008C71.5211 63.3027 71.1862 63.6358 70.7829 63.866V35.123H72.1059V61.578Z" fill="white"/>
<path d="M69.461 64.222C68.9962 64.2216 68.5398 64.0985 68.138 63.865C68.059 63.825 67.993 63.772 67.926 63.733C67.859 63.694 67.833 63.654 67.781 63.614C67.7161 63.5603 67.6543 63.5029 67.596 63.442C67.3474 63.1995 67.1502 62.9093 67.0162 62.5889C66.8822 62.2685 66.8141 61.9243 66.816 61.577V37.769C66.8149 37.4185 66.6752 37.0826 66.4273 36.8347C66.1794 36.5868 65.8435 36.4471 65.493 36.446H44.873L41.302 32.862C41.0499 32.6182 40.7137 32.4807 40.363 32.478H28.463C28.1117 32.478 27.7748 32.6173 27.5261 32.8653C27.2773 33.1133 27.137 33.4498 27.136 33.801V61.578C27.1347 62.5483 27.4006 63.5001 27.9046 64.3291C28.4086 65.1582 29.1311 65.8325 29.993 66.278H30.006V66.291C30.206 66.384 30.416 66.463 30.628 66.542C31.2011 66.7673 31.8123 66.8797 32.428 66.873H69.462C69.6387 66.8779 69.8146 66.8473 69.9793 66.783C70.144 66.7187 70.2942 66.6221 70.4209 66.4988C70.5476 66.3755 70.6484 66.2281 70.7171 66.0652C70.7859 65.9023 70.8214 65.7273 70.8214 65.5505C70.8214 65.3737 70.7859 65.1987 70.7171 65.0358C70.6484 64.873 70.5476 64.7255 70.4209 64.6022C70.2942 64.479 70.144 64.3823 69.9793 64.3181C69.8146 64.2538 69.6387 64.2232 69.462 64.228L69.461 64.222ZM32.427 64.222C32.2761 64.2225 32.1255 64.2091 31.977 64.182C31.841 64.1576 31.7072 64.1222 31.577 64.076C31.564 64.063 31.537 64.063 31.524 64.05C31.0112 63.8717 30.5671 63.5374 30.254 63.0938C29.9408 62.6503 29.7744 62.1199 29.778 61.577V35.123H39.82L43.391 38.707C43.6431 38.9508 43.9793 39.0883 44.33 39.091H64.17V61.578C64.1679 61.8171 64.1856 62.0559 64.223 62.292C64.2486 62.4886 64.2884 62.6831 64.342 62.874C64.349 62.9284 64.3625 62.9818 64.382 63.033C64.418 63.1636 64.4621 63.2919 64.514 63.417C64.5543 63.5434 64.6027 63.667 64.659 63.787C64.7261 63.9321 64.8012 64.0733 64.884 64.21V64.223L32.427 64.222Z" fill="white"/>
<path d="M53.589 45.705H50.94V43.06C50.939 42.7101 50.7998 42.3748 50.5528 42.1271C50.3058 41.8793 49.9709 41.7391 49.621 41.737H44.331C43.9805 41.7381 43.6446 41.8778 43.3967 42.1257C43.1488 42.3735 43.0091 42.7094 43.008 43.06V45.705H40.363C40.0125 45.7061 39.6766 45.8458 39.4287 46.0937C39.1808 46.3415 39.0411 46.6774 39.04 47.028V52.319C39.0411 52.6696 39.1808 53.0055 39.4287 53.2533C39.6766 53.5012 40.0125 53.6409 40.363 53.642H43.008V56.287C43.0091 56.6376 43.1488 56.9734 43.3967 57.2213C43.6446 57.4692 43.9805 57.6089 44.331 57.61H49.622C49.9726 57.6089 50.3085 57.4692 50.5564 57.2213C50.8043 56.9734 50.944 56.6376 50.945 56.287V53.637H53.59C53.9406 53.6359 54.2765 53.4962 54.5244 53.2483C54.7723 53.0005 54.912 52.6646 54.913 52.314V47.023C54.9107 46.6731 54.7702 46.3384 54.5223 46.0915C54.2743 45.8447 53.9389 45.7058 53.589 45.705ZM52.266 50.996H49.621C49.2705 50.9971 48.9346 51.1368 48.6867 51.3847C48.4388 51.6325 48.2991 51.9684 48.298 52.319V54.964H45.653V52.319C45.652 51.9684 45.5123 51.6325 45.2644 51.3847C45.0165 51.1368 44.6806 50.9971 44.33 50.996H41.685V48.351H44.33C44.6806 48.3499 45.0165 48.2102 45.2644 47.9623C45.5123 47.7145 45.652 47.3786 45.653 47.028V44.383H48.298V47.028C48.2991 47.3786 48.4388 47.7145 48.6867 47.9623C48.9346 48.2102 49.2705 48.3499 49.621 48.351H52.266V50.996Z" fill="white"/>
<path opacity="0.5" d="M52.2661 48.351V50.996H49.6211C49.2705 50.9971 48.9346 51.1368 48.6867 51.3847C48.4389 51.6326 48.2991 51.9685 48.2981 52.319V54.964H45.6531V52.319C45.652 51.9685 45.5123 51.6326 45.2644 51.3847C45.0165 51.1368 44.6806 50.9971 44.3301 50.996H48.2981V47.028C48.2991 47.3786 48.4389 47.7145 48.6867 47.9624C48.9346 48.2102 49.2705 48.35 49.6211 48.351H52.2661Z" fill="white"/>
<path d="M58.2319 24.939C57.3474 25.2778 56.5769 25.8603 56.0099 26.619C56.8429 27.082 57.6499 27.571 58.3099 28.008C58.6359 27.6455 59.0652 27.3918 59.5399 27.281C59.647 27.2451 59.7582 27.2229 59.8709 27.215C59.9798 27.1932 60.0909 27.1845 60.2019 27.189C60.8841 27.1861 61.5398 27.4524 62.0269 27.93C61.5909 27.254 60.5859 26.288 58.2319 24.939ZM57.5569 29.833C57.5555 29.4922 57.6235 29.1547 57.7569 28.841C56.8969 28.92 55.9189 28.947 54.9929 28.973C54.9398 29.2566 54.9133 29.5445 54.9139 29.833C54.9104 30.409 55.0044 30.9814 55.1919 31.526C56.2769 31.5 57.2289 31.46 58.0619 31.38C57.7329 30.9314 57.5559 30.3894 57.5569 29.833Z" fill="white"/>
<path d="M43.2991 27.191H36.3991C36.1117 27.1907 35.8322 27.0969 35.6028 26.9238C35.3734 26.7506 35.2065 26.5075 35.1275 26.2312C35.0484 25.9548 35.0614 25.6603 35.1646 25.392C35.2677 25.1237 35.4553 24.8963 35.6991 24.744C38.4051 25.68 40.9841 26.513 43.2991 27.191Z" fill="white"/>
<path d="M49.6209 29.834C49.6196 30.1002 49.5382 30.3599 49.3873 30.5793C49.2364 30.7986 49.0231 30.9675 48.7749 31.064H48.7619C46.3549 30.548 43.1009 29.664 39.3979 28.511H48.2979C48.6485 28.5121 48.9844 28.6518 49.2323 28.8997C49.4802 29.1476 49.6199 29.4835 49.6209 29.834Z" fill="white"/>
<path d="M60.202 61.576H28.459C28.1145 61.5665 27.7874 61.4231 27.5471 61.1761C27.3068 60.9291 27.1724 60.5981 27.1724 60.2535C27.1724 59.9089 27.3068 59.5779 27.5471 59.331C27.7874 59.084 28.1145 58.9405 28.459 58.931H60.203C60.3797 58.9262 60.5556 58.9568 60.7203 59.021C60.885 59.0853 61.0352 59.1819 61.1619 59.3052C61.2886 59.4285 61.3894 59.576 61.4581 59.7388C61.5269 59.9017 61.5624 60.0767 61.5624 60.2535C61.5624 60.4303 61.5269 60.6053 61.4581 60.7682C61.3894 60.9311 61.2886 61.0785 61.1619 61.2018C61.0352 61.3251 60.885 61.4217 60.7203 61.486C60.5556 61.5503 60.3797 61.5809 60.203 61.576H60.202Z" fill="white"/>
<path opacity="0.5" d="M66.8159 39.092H61.5249V64.222H66.8159V39.092Z" fill="white"/>
<path opacity="0.5" d="M61.525 64.222H36.395C43.0598 64.2218 49.4516 61.574 54.1643 56.8613C58.8771 52.1486 61.5248 45.7568 61.525 39.092V64.222Z" fill="white"/>
<path opacity="0.5" d="M48.2981 47.028V50.996H44.3301C45.382 50.9944 46.3903 50.5759 47.1341 49.8321C47.8779 49.0883 48.2965 48.0799 48.2981 47.028Z" fill="white"/>
<path opacity="0.5" d="M68.1379 20.575H65.4929V64.222H68.1379V20.575Z" fill="white"/>
<path opacity="0.5" d="M72.106 35.124H70.783V64.222H72.106V35.124Z" fill="white"/>
<path d="M62.371 29C62.3805 29.3313 62.2945 29.6583 62.1232 29.942C61.9519 30.2257 61.7026 30.4541 61.405 30.6C60.3552 31.0872 59.2161 31.3527 58.0591 31.38C57.2261 31.459 56.273 31.499 55.189 31.525C54.2631 31.538 53.245 31.551 52.134 31.551C51.0012 31.4933 49.8763 31.3296 48.774 31.062H48.76C46.353 30.546 43.099 29.662 39.396 28.509C37.196 27.834 34.846 27.054 32.426 26.209C31.553 25.892 30.6671 25.574 29.7811 25.257C29.7449 25.2459 29.7095 25.2325 29.675 25.217C28.829 24.917 27.982 24.595 27.149 24.278C23.895 23.048 20.6421 21.712 17.5731 20.35C16.8061 20.006 16.039 19.662 15.298 19.318C7.19005 15.509 0.998047 11.541 0.998047 8.53802C0.998047 7.00402 2.10905 3.43301 12.505 3.43301C19.727 3.43301 28.033 7.21602 28.377 7.37502C28.446 7.40194 28.5089 7.44241 28.562 7.49402C28.8152 7.6604 28.9999 7.91233 29.0825 8.20374C29.1652 8.49514 29.1401 8.80655 29.012 9.08102C28.8651 9.38682 28.6044 9.62303 28.2856 9.73924C27.9669 9.85546 27.6153 9.84246 27.306 9.70302C27.28 9.69002 26.301 9.24002 24.753 8.65802C21.817 7.55802 16.853 5.98602 12.505 5.98602C11.949 5.98602 11.434 5.99902 10.931 6.02602H10.92C8.79847 6.00796 6.69588 6.42666 4.74305 7.25603C3.92305 7.67903 3.55305 8.15602 3.55305 8.53902C3.55305 11.29 16.8721 17.679 29.7811 22.586C30.6671 22.93 31.553 23.247 32.426 23.578C33.537 23.978 34.626 24.372 35.693 24.742C38.404 25.681 40.9841 26.514 43.298 27.189C46.1622 28.1358 49.1274 28.744 52.133 29.001C52.7551 29.001 53.826 29.001 54.9901 28.975C55.916 28.949 56.8901 28.922 57.7541 28.843C58.3091 28.803 58.825 28.737 59.235 28.671C58.984 28.471 58.666 28.248 58.3091 28.01C57.6481 27.574 56.841 27.084 56.009 26.621C55.797 26.515 55.599 26.409 55.387 26.304C55.2268 26.2214 55.0861 26.1056 54.9743 25.9641C54.8626 25.8227 54.7823 25.659 54.739 25.484C54.6939 25.3095 54.6859 25.1275 54.7155 24.9498C54.7452 24.772 54.8118 24.6024 54.911 24.452L56.604 21.899L58.363 19.254L59.4341 17.654L58.2701 16.49L52.76 19.252L48.8801 21.193C48.7001 21.278 48.5036 21.322 48.3046 21.322C48.1055 21.322 47.909 21.278 47.729 21.193L43.84 19.249L40.494 17.582L40.058 17.357C39.7633 17.1994 39.5419 16.9329 39.441 16.6143C39.34 16.2957 39.3676 15.9503 39.5178 15.6517C39.668 15.3532 39.9289 15.1251 40.2449 15.0163C40.5608 14.9074 40.9068 14.9263 41.209 15.069L48.298 18.614L57.953 13.786C58.1938 13.6659 58.4662 13.6243 58.7318 13.667C58.9975 13.7097 59.243 13.8345 59.4341 14.024L61.987 16.577C62.1983 16.7849 62.3299 17.0603 62.3589 17.3552C62.388 17.6502 62.3126 17.9459 62.146 18.191L61.446 19.249L59.687 21.894L57.822 24.694C57.967 24.773 58.1 24.853 58.232 24.932C60.586 26.281 61.5921 27.247 62.0321 27.921C62.0355 27.921 62.0388 27.9224 62.0412 27.9248C62.0437 27.9273 62.0451 27.9306 62.0451 27.934C62.2674 28.2441 62.3819 28.6186 62.371 29Z" fill="white"/>
<path d="M56.883 6.35603L51.764 1.25101C51.6031 1.08458 51.3995 0.965665 51.1755 0.90728C50.9515 0.848895 50.7157 0.853302 50.494 0.920021L28.564 7.49403L24.927 8.59402C24.8669 8.60791 24.809 8.63013 24.755 8.66003C24.5417 8.75611 24.3589 8.90909 24.2268 9.1022C24.0946 9.2953 24.0182 9.52107 24.0059 9.75474C23.9936 9.98841 24.0459 10.221 24.1571 10.4269C24.2682 10.6328 24.4339 10.8041 24.636 10.922L37.413 18.593C37.6138 18.7105 37.8415 18.7742 38.074 18.778C38.2964 18.7725 38.5143 18.7135 38.709 18.606L40.495 17.588L43.167 16.054L56.605 8.38302C56.7762 8.28295 56.9223 8.14522 57.0324 7.98028C57.1424 7.81533 57.2134 7.6275 57.24 7.43102C57.2673 7.23645 57.2493 7.0382 57.1874 6.85174C57.1254 6.66527 57.0213 6.49563 56.883 6.35603ZM38.088 16.011L28.433 10.218L50.495 3.59202L53.895 6.99203L38.088 16.011Z" fill="white"/>
<path d="M13.42 9.42403C13.3053 9.54617 13.1673 9.64423 13.0142 9.71247C12.8611 9.78071 12.696 9.81777 12.5284 9.82149C12.3609 9.82522 12.1942 9.79553 12.0383 9.73415C11.8823 9.67278 11.7401 9.58095 11.62 9.46403C9.6986 7.93473 7.28826 7.15319 4.83503 7.26403C4.80346 7.26629 4.77177 7.26186 4.74203 7.25103C4.41875 7.23208 4.11507 7.08977 3.89364 6.85346C3.67222 6.61715 3.54994 6.30487 3.55203 5.98104C3.55335 5.64137 3.68921 5.31605 3.92987 5.07633C4.17052 4.83661 4.49636 4.70203 4.83603 4.70203C6.93784 4.67867 9.01772 5.13095 10.92 6.02503H10.933C11.8325 6.42489 12.6628 6.96494 13.393 7.62504C13.635 7.86012 13.7737 8.18163 13.7788 8.51894C13.7839 8.85626 13.6548 9.18179 13.42 9.42403Z" fill="white"/>
<path d="M11.925 36.534L17.04 39.091C17.2999 39.2224 17.5969 39.2611 17.8819 39.2007C18.1668 39.1403 18.4226 38.9845 18.607 38.759L30.114 24.695C30.3267 24.4318 30.4266 24.0951 30.3918 23.7585C30.357 23.4219 30.1902 23.1128 29.9281 22.8987C29.666 22.6847 29.3297 22.5832 28.9929 22.6164C28.6562 22.6496 28.3462 22.8149 28.131 23.076L17.271 36.347L13.988 34.704L17.574 20.357C17.6198 20.1924 17.6322 20.0202 17.6105 19.8508C17.5887 19.6813 17.5332 19.5178 17.4472 19.3702C17.3612 19.2225 17.2465 19.0935 17.1098 18.9909C16.9731 18.8883 16.8173 18.8141 16.6515 18.7728C16.4857 18.7314 16.3133 18.7237 16.1444 18.7501C15.9756 18.7765 15.8138 18.8364 15.6685 18.9264C15.5232 19.0164 15.3974 19.1345 15.2986 19.2739C15.1997 19.4133 15.1298 19.5711 15.093 19.738L11.253 35.08C11.1829 35.3627 11.2113 35.6608 11.3334 35.9251C11.4556 36.1895 11.6643 36.4042 11.925 36.534Z" fill="white"/>
<path opacity="0.5" d="M54.9111 17.929C54.9111 17.929 54.1701 25.865 43.2981 27.188L45.6521 29.833H54.9111L62.3711 29L56.2341 24.543L60.2021 17.93L59.4351 14.03L54.9111 17.929Z" fill="white"/>
<path opacity="0.5" d="M50.494 3.59201C50.494 3.59201 47.302 10.139 37.717 16.607L53.589 8.67101L56.234 7.34801L50.494 3.59201Z" fill="white"/>
<path opacity="0.5" d="M27.135 25.865L16.554 24.542L17.573 20.355L28.454 24.542L27.135 25.865Z" fill="white"/>
</svg>
