<svg width="54" height="67" viewBox="0 0 54 67" fill="none" xmlns="http://www.w3.org/2000/svg">
<path d="M31.95 17.283H7.20004C6.76244 17.283 6.34276 17.1092 6.03333 16.7997C5.72389 16.4903 5.55005 16.0706 5.55005 15.633V2.43302C5.55005 2.21633 5.59274 2.00178 5.67566 1.80159C5.75858 1.6014 5.88011 1.41951 6.03333 1.2663C6.18654 1.11308 6.36845 0.991537 6.56863 0.908616C6.76882 0.825696 6.98336 0.783021 7.20004 0.783021H31.95C32.1668 0.782758 32.3815 0.825255 32.5818 0.908082C32.7821 0.990909 32.9641 1.11243 33.1174 1.2657C33.2706 1.41897 33.3921 1.60098 33.475 1.80129C33.5578 2.00159 33.6003 2.21626 33.6 2.43302V15.633C33.6003 15.8498 33.5578 16.0645 33.475 16.2648C33.3921 16.4651 33.2706 16.6471 33.1174 16.8003C32.9641 16.9536 32.7821 17.0751 32.5818 17.158C32.3815 17.2408 32.1668 17.2833 31.95 17.283ZM8.85004 13.983H30.3V4.08302H8.85004V13.983Z" fill="white"/>
<path d="M12.15 12.333C11.7124 12.333 11.2927 12.1592 10.9833 11.8498C10.6738 11.5403 10.5 11.1206 10.5 10.683V7.38303C10.5 6.94542 10.6738 6.52574 10.9833 6.21631C11.2927 5.90687 11.7124 5.73303 12.15 5.73303C12.5876 5.73303 13.0073 5.90687 13.3167 6.21631C13.6261 6.52574 13.8 6.94542 13.8 7.38303V10.683C13.8 11.1206 13.6261 11.5403 13.3167 11.8498C13.0073 12.1592 12.5876 12.333 12.15 12.333Z" fill="white"/>
<path d="M17.1002 12.333C16.8835 12.3332 16.6688 12.2906 16.4686 12.2077C16.2684 12.1248 16.0864 12.0033 15.9332 11.85C15.7799 11.6968 15.6584 11.5149 15.5755 11.3146C15.4927 11.1144 15.4501 10.8997 15.4502 10.683V7.38303C15.4502 6.94542 15.624 6.52574 15.9335 6.21631C16.2429 5.90687 16.6626 5.73303 17.1002 5.73303C17.5378 5.73303 17.9575 5.90687 18.2669 6.21631C18.5763 6.52574 18.7502 6.94542 18.7502 7.38303V10.683C18.7502 11.1206 18.5763 11.5403 18.2669 11.8498C17.9575 12.1592 17.5378 12.333 17.1002 12.333Z" fill="white"/>
<path d="M22.0501 12.333C21.6125 12.333 21.1929 12.1592 20.8834 11.8498C20.574 11.5403 20.4001 11.1206 20.4001 10.683V7.38303C20.4001 6.94542 20.574 6.52574 20.8834 6.21631C21.1929 5.90687 21.6125 5.73303 22.0501 5.73303C22.4877 5.73303 22.9074 5.90687 23.2169 6.21631C23.5263 6.52574 23.7001 6.94542 23.7001 7.38303V10.683C23.7001 11.1206 23.5263 11.5403 23.2169 11.8498C22.9074 12.1592 22.4877 12.333 22.0501 12.333Z" fill="white"/>
<path d="M27.0001 12.333C26.5625 12.333 26.1428 12.1592 25.8334 11.8498C25.5239 11.5403 25.3501 11.1206 25.3501 10.683V7.38303C25.3501 6.94542 25.5239 6.52574 25.8334 6.21631C26.1428 5.90687 26.5625 5.73303 27.0001 5.73303C27.4377 5.73303 27.8574 5.90687 28.1668 6.21631C28.4762 6.52574 28.6501 6.94542 28.6501 7.38303V10.683C28.6501 11.1206 28.4762 11.5403 28.1668 11.8498C27.8574 12.1592 27.4377 12.333 27.0001 12.333Z" fill="white"/>
<path d="M38.5501 34.113V25.533C38.5501 24.6663 38.3794 23.8081 38.0477 23.0073C37.716 22.2066 37.2299 21.479 36.617 20.8661C36.0041 20.2533 35.2766 19.7671 34.4758 19.4354C33.675 19.1037 32.8168 18.933 31.9501 18.933H30.3001V15.633C30.2988 15.1958 30.1245 14.7769 29.8154 14.4678C29.5062 14.1586 29.0873 13.9844 28.6501 13.983H10.5001C10.0629 13.9844 9.64399 14.1586 9.33484 14.4678C9.02569 14.7769 8.85142 15.1958 8.8501 15.633V18.933H7.2001C6.33338 18.933 5.47513 19.1037 4.67438 19.4354C3.87363 19.7671 3.14607 20.2533 2.5332 20.8661C1.92034 21.479 1.43416 22.2066 1.10248 23.0073C0.770797 23.8081 0.600098 24.6663 0.600098 25.533V61.833C0.604054 63.1446 1.12684 64.4014 2.05429 65.3288C2.98174 66.2563 4.23851 66.7791 5.55011 66.783H33.6001C34.6227 66.786 35.6208 66.4697 36.455 65.8781C37.2892 65.2864 37.9178 64.4492 38.2531 63.483C38.2701 63.466 38.2701 63.466 38.2701 63.45C38.3614 63.195 38.388 62.9213 38.3477 62.6535C38.3074 62.3856 38.2014 62.1319 38.0391 61.915C35.1164 58.0512 33.5487 53.3317 33.5786 48.4871C33.6084 43.6424 35.2341 38.9426 38.2041 35.115C38.4309 34.8306 38.5531 34.4768 38.5501 34.113ZM35.2501 33.552C32.1076 37.7969 30.3706 42.9179 30.2818 48.1987C30.193 53.4795 31.7571 58.6559 34.7551 63.004C34.4449 63.3046 34.032 63.4759 33.6001 63.483H5.55011C5.11291 63.4817 4.69398 63.3074 4.38483 62.9983C4.07568 62.6891 3.9014 62.2702 3.90009 61.833V25.533C3.90272 24.6586 4.25127 23.8208 4.86957 23.2025C5.48787 22.5842 6.3257 22.2357 7.2001 22.233H10.5001C10.9373 22.2317 11.3562 22.0574 11.6654 21.7483C11.9745 21.4391 12.1488 21.0202 12.1501 20.583V17.283H27.0001V20.583C27.0014 21.0202 27.1757 21.4391 27.4848 21.7483C27.794 22.0574 28.2129 22.2317 28.6501 22.233H31.9501C32.8245 22.2357 33.6623 22.5842 34.2806 23.2025C34.8989 23.8208 35.2475 24.6586 35.2501 25.533V33.552Z" fill="white"/>
<path d="M46.2551 24.378C46.0996 24.2212 45.9146 24.0967 45.7106 24.0117C45.5067 23.9267 45.288 23.883 45.0671 23.883C44.8462 23.883 44.6275 23.9267 44.4236 24.0117C44.2197 24.0967 44.0347 24.2212 43.8791 24.378L37.4601 30.962C36.7996 31.642 36.1773 32.3581 35.5961 33.107C32.1845 37.5041 30.3162 42.9024 30.2801 48.4677C30.2439 54.0329 32.0419 59.455 35.3961 63.896C36.0264 64.7365 36.7098 65.5358 37.4421 66.289C37.5977 66.4459 37.7827 66.5704 37.9866 66.6554C38.1905 66.7403 38.4092 66.7841 38.6301 66.7841C38.851 66.7841 39.0697 66.7403 39.2736 66.6554C39.4775 66.5704 39.6626 66.4459 39.8181 66.289L46.2531 59.689C50.8357 54.9543 53.3977 48.6232 53.3977 42.034C53.3977 35.4448 50.8357 29.1138 46.2531 24.379L46.2551 24.378ZM43.8791 57.378L38.6791 62.724C38.5973 62.6345 38.5202 62.5407 38.4481 62.443C38.3001 62.262 38.1681 62.08 38.0361 61.915C37.9361 61.783 37.8361 61.635 37.7221 61.503C35.0218 57.7542 33.5703 53.2504 33.5733 48.6303C33.5764 44.0102 35.0339 39.5083 37.7391 35.763C37.8871 35.548 38.0391 35.334 38.2011 35.136C38.6943 34.4814 39.2348 33.8638 39.8181 33.288L43.0031 30.004L45.0161 27.942C48.4878 32.1261 50.2918 37.4451 50.0817 42.8779C49.8717 48.3107 47.6625 53.4744 43.8781 57.378H43.8791Z" fill="white"/>
<path opacity="0.5" d="M50.1 42.033C50.128 47.7675 47.8929 53.2815 43.88 57.378L38.68 62.724C38.5981 62.6345 38.521 62.5407 38.449 62.443L41.419 57.378C43.9788 52.6757 45.2643 47.3857 45.148 42.033C45.1911 37.9245 44.4636 33.8444 43.003 30.004L45.016 27.942C48.3254 31.889 50.127 36.8823 50.1 42.033Z" fill="white"/>
<path d="M28.6501 53.583H2.25009C2.03337 53.5831 1.81875 53.5405 1.6185 53.4577C1.41825 53.3748 1.23631 53.2533 1.08307 53.1C0.929826 52.9468 0.808307 52.7649 0.725434 52.5646C0.64256 52.3644 0.599966 52.1497 0.600098 51.933V28.833C0.599966 28.6163 0.64256 28.4017 0.725434 28.2014C0.808307 28.0012 0.929826 27.8192 1.08307 27.666C1.23631 27.5127 1.41825 27.3912 1.6185 27.3084C1.81875 27.2255 2.03337 27.1829 2.25009 27.183H28.6501C28.8668 27.1828 29.0815 27.2252 29.2818 27.3081C29.4821 27.3909 29.6641 27.5124 29.8174 27.6657C29.9707 27.819 30.0922 28.001 30.175 28.2013C30.2579 28.4016 30.3004 28.6163 30.3001 28.833V51.933C30.3004 52.1498 30.2579 52.3645 30.175 52.5648C30.0922 52.7651 29.9707 52.9471 29.8174 53.1003C29.6641 53.2536 29.4821 53.3751 29.2818 53.4579C29.0815 53.5408 28.8668 53.5833 28.6501 53.583ZM3.90009 50.283H27.0001V30.483H3.90009V50.283Z" fill="white"/>
<path d="M27.0001 60.183H2.25009C1.81248 60.183 1.39281 60.0092 1.08337 59.6997C0.773939 59.3903 0.600098 58.9706 0.600098 58.533C0.600098 58.0954 0.773939 57.6757 1.08337 57.3663C1.39281 57.0569 1.81248 56.883 2.25009 56.883H27.0001C27.4377 56.883 27.8574 57.0569 28.1668 57.3663C28.4762 57.6757 28.6501 58.0954 28.6501 58.533C28.6501 58.9706 28.4762 59.3903 28.1668 59.6997C27.8574 60.0092 27.4377 60.183 27.0001 60.183Z" fill="white"/>
<path d="M15.45 46.983C15.0124 46.983 14.5928 46.8092 14.2833 46.4998C13.9739 46.1903 13.8 45.7706 13.8 45.333V35.433C13.8 34.9954 13.9739 34.5757 14.2833 34.2663C14.5928 33.9569 15.0124 33.783 15.45 33.783C15.8877 33.783 16.3073 33.9569 16.6168 34.2663C16.9262 34.5757 17.1 34.9954 17.1 35.433V45.333C17.1 45.5497 17.0574 45.7643 16.9745 45.9644C16.8915 46.1646 16.77 46.3465 16.6168 46.4998C16.4635 46.653 16.2817 46.7745 16.0815 46.8574C15.8813 46.9403 15.6667 46.983 15.45 46.983Z" fill="white"/>
<path d="M20.4001 42.033H10.5001C10.0625 42.033 9.64281 41.8592 9.33337 41.5497C9.02394 41.2403 8.8501 40.8206 8.8501 40.383C8.8501 39.9454 9.02394 39.5257 9.33337 39.2163C9.64281 38.9069 10.0625 38.733 10.5001 38.733H20.4001C20.8377 38.733 21.2574 38.9069 21.5668 39.2163C21.8763 39.5257 22.0501 39.9454 22.0501 40.383C22.0501 40.8206 21.8763 41.2403 21.5668 41.5497C21.2574 41.8592 20.8377 42.033 20.4001 42.033Z" fill="white"/>
<path opacity="0.5" d="M30.3001 13.983H17.1001C19.7257 13.983 22.2439 12.94 24.1005 11.0834C25.9571 9.22676 27.0001 6.70865 27.0001 4.08301H30.3001V13.983Z" fill="white"/>
<path opacity="0.5" d="M25.35 50.283H5.55005C8.15022 50.283 10.7249 49.7709 13.1272 48.7758C15.5294 47.7808 17.7122 46.3223 19.5508 44.4837C21.3894 42.6451 22.8478 40.4624 23.8429 38.0602C24.8379 35.6579 25.35 33.0832 25.35 30.483V50.283Z" fill="white"/>
<path opacity="0.5" d="M23.342 22.217H25.418V27.293H20.342V25.217C20.342 24.4214 20.6581 23.6583 21.2207 23.0957C21.7833 22.5331 22.5464 22.217 23.342 22.217V22.217Z" fill="white"/>
<path opacity="0.5" d="M25.3502 63.483H15.4502C18.0758 63.483 20.594 62.44 22.4506 60.5834C24.3072 58.7268 25.3502 56.2087 25.3502 53.583V63.483Z" fill="white"/>
<path opacity="0.5" d="M35.2501 33.552C32.1068 37.7966 30.3688 42.9174 30.2791 48.1984C30.1895 53.4793 31.7527 58.6562 34.7501 63.005C34.4398 63.3052 34.0268 63.4762 33.5951 63.483H25.3501V17.283H27.0001V20.583C27.0014 21.0202 27.1757 21.4391 27.4848 21.7483C27.794 22.0574 28.2129 22.2317 28.6501 22.233H31.9501C32.8245 22.2357 33.6623 22.5842 34.2806 23.2025C34.8989 23.8208 35.2475 24.6586 35.2501 25.533V33.552Z" fill="white"/>
</svg>
