<svg width="70" height="65" viewBox="0 0 70 65" fill="none" xmlns="http://www.w3.org/2000/svg">
<path d="M23.838 35.665C24.6222 35.665 25.258 35.0292 25.258 34.245C25.258 33.4607 24.6222 32.825 23.838 32.825C23.0537 32.825 22.418 33.4607 22.418 34.245C22.418 35.0292 23.0537 35.665 23.838 35.665Z" fill="white"/>
<path d="M29.5189 35.665C30.3031 35.665 30.9389 35.0292 30.9389 34.245C30.9389 33.4607 30.3031 32.825 29.5189 32.825C28.7346 32.825 28.0989 33.4607 28.0989 34.245C28.0989 35.0292 28.7346 35.665 29.5189 35.665Z" fill="white"/>
<path d="M46.5639 35.666H36.6209C36.2442 35.666 35.8829 35.5163 35.6165 35.2499C35.3501 34.9835 35.2004 34.6222 35.2004 34.2455C35.2004 33.8687 35.3501 33.5074 35.6165 33.241C35.8829 32.9746 36.2442 32.825 36.6209 32.825H46.5639C46.9407 32.825 47.302 32.9746 47.5684 33.241C47.8348 33.5074 47.9844 33.8687 47.9844 34.2455C47.9844 34.6222 47.8348 34.9835 47.5684 35.2499C47.302 35.5163 46.9407 35.666 46.5639 35.666Z" fill="white"/>
<path d="M60.7668 44.188V39.927C60.7668 39.5502 60.9165 39.1889 61.1829 38.9225C61.4493 38.6561 61.8106 38.5065 62.1873 38.5065C62.5641 38.5065 62.9254 38.6561 63.1918 38.9225C63.4582 39.1889 63.6078 39.5502 63.6078 39.927V44.188C63.6078 44.5647 63.4582 44.926 63.1918 45.1924C62.9254 45.4588 62.5641 45.6085 62.1873 45.6085C61.8106 45.6085 61.4493 45.4588 61.1829 45.1924C60.9165 44.926 60.7668 44.5647 60.7668 44.188Z" fill="white"/>
<path d="M6.79395 52.71V48.449C6.79395 48.0722 6.9436 47.7109 7.21 47.4445C7.47639 47.1781 7.83771 47.0285 8.21445 47.0285C8.59119 47.0285 8.95249 47.1781 9.21889 47.4445C9.48528 47.7109 9.63495 48.0722 9.63495 48.449V52.71C9.63495 53.0867 9.48528 53.448 9.21889 53.7144C8.95249 53.9808 8.59119 54.1305 8.21445 54.1305C7.83771 54.1305 7.47639 53.9808 7.21 53.7144C6.9436 53.448 6.79395 53.0867 6.79395 52.71Z" fill="white"/>
<path d="M57.2159 64.783H12.4749V21.783C12.4783 19.4382 13.4115 17.1905 15.0698 15.5328C16.7281 13.875 18.9761 12.9426 21.3208 12.94V15.781C19.7287 15.7826 18.2022 16.4157 17.0764 17.5415C15.9506 18.6674 15.3174 20.1938 15.3159 21.786V61.94H54.3748V21.786C54.3733 20.1938 53.7401 18.6674 52.6143 17.5415C51.4885 16.4157 49.962 15.7826 48.3699 15.781V12.94C50.7151 12.9426 52.9636 13.8755 54.622 15.5338C56.2804 17.1922 57.2132 19.4407 57.2159 21.786V64.783Z" fill="white"/>
<path d="M15.3159 64.784H4.86086C3.67858 64.7829 2.54503 64.3128 1.70904 63.4768C0.873043 62.6408 0.402915 61.5072 0.401855 60.325V32.269C0.403708 30.722 1.01906 29.2389 2.11293 28.145C3.2068 27.0512 4.68989 26.4358 6.23685 26.434H15.3159V64.784ZM6.23685 29.275C5.44328 29.2765 4.68267 29.5925 4.12153 30.1536C3.56039 30.7148 3.24444 31.4754 3.24286 32.269V60.325C3.24339 60.7539 3.41402 61.1652 3.71734 61.4685C4.02066 61.7718 4.4319 61.9424 4.86086 61.943H12.4759V29.275H6.23685Z" fill="white"/>
<path d="M65.541 64.784H54.376V26.434H64.165C65.7119 26.4358 67.195 27.0512 68.2889 28.145C69.3828 29.2389 69.9981 30.722 70 32.269V60.325C69.9989 61.5072 69.5288 62.6408 68.6928 63.4768C67.8568 64.3128 66.7232 64.7829 65.541 64.784ZM57.216 61.943H65.541C65.9699 61.9424 66.3812 61.7718 66.6845 61.4685C66.9878 61.1652 67.1585 60.7539 67.159 60.325V32.269C67.1574 31.4754 66.8414 30.7148 66.2803 30.1536C65.7192 29.5925 64.9585 29.2765 64.165 29.275H57.217L57.216 61.943Z" fill="white"/>
<path d="M42.8347 64.783H26.1458V45.798C26.1473 44.618 26.6168 43.4868 27.4512 42.6524C28.2856 41.818 29.4168 41.3486 30.5968 41.347H38.3828C39.5627 41.3486 40.694 41.818 41.5283 42.6524C42.3627 43.4868 42.8322 44.618 42.8338 45.798L42.8347 64.783ZM28.9868 61.947H39.9948V45.798C39.9942 45.3709 39.8243 44.9614 39.5223 44.6594C39.2203 44.3574 38.8109 44.1875 38.3838 44.187H30.5977C30.1706 44.1875 29.7612 44.3574 29.4592 44.6594C29.1572 44.9614 28.9873 45.3709 28.9868 45.798V61.947Z" fill="white"/>
<path d="M34.4869 29.274C31.6784 29.274 28.9329 28.4412 26.5978 26.8808C24.2626 25.3205 22.4425 23.1028 21.3678 20.5081C20.293 17.9134 20.0118 15.0582 20.5597 12.3037C21.1076 9.54915 22.4601 7.01896 24.446 5.03305C26.4319 3.04715 28.9621 1.69473 31.7166 1.14682C34.4711 0.598906 37.3263 0.880119 39.921 1.95488C42.5157 3.02965 44.7334 4.84969 46.2937 7.18487C47.8541 9.52005 48.6869 12.2655 48.6869 15.074C48.6816 18.8384 47.1838 22.4472 44.5219 25.109C41.8601 27.7709 38.2513 29.2687 34.4869 29.274ZM34.4869 3.70697C32.2395 3.70756 30.0427 4.37457 28.1744 5.62365C26.3061 6.87272 24.8502 8.64776 23.9907 10.7243C23.1312 12.8009 22.9068 15.0856 23.3458 17.2897C23.7848 19.4938 24.8676 21.5182 26.4571 23.1069C28.0467 24.6957 30.0717 25.7774 32.276 26.2152C34.4803 26.6531 36.765 26.4275 38.8411 25.5669C40.9172 24.7063 42.6914 23.2494 43.9395 21.3804C45.1876 19.5115 45.8535 17.3144 45.8529 15.067C45.8484 12.0545 44.6492 9.16689 42.5185 7.03744C40.3877 4.90799 37.4993 3.71062 34.4869 3.70797V3.70697Z" fill="white"/>
<path d="M38.6328 11.875H36.9748V10.217C36.974 9.99762 36.8866 9.78747 36.7314 9.63236C36.5763 9.47725 36.3662 9.38977 36.1468 9.38898H32.8318C32.6125 9.38977 32.4023 9.47725 32.2472 9.63236C32.0921 9.78747 32.0046 9.99762 32.0038 10.217V11.875H30.3458C30.1265 11.8758 29.9163 11.9633 29.7612 12.1184C29.6061 12.2735 29.5186 12.4836 29.5178 12.703V16.018C29.5186 16.2373 29.6061 16.4475 29.7612 16.6026C29.9163 16.7577 30.1265 16.8452 30.3458 16.846H32.0038V18.504C32.0046 18.7233 32.0921 18.9335 32.2472 19.0886C32.4023 19.2437 32.6125 19.3312 32.8318 19.332H36.1468C36.3662 19.3312 36.5763 19.2437 36.7314 19.0886C36.8866 18.9335 36.974 18.7233 36.9748 18.504V16.846H38.6328C38.8522 16.8452 39.0623 16.7577 39.2174 16.6026C39.3725 16.4475 39.46 16.2373 39.4608 16.018V12.703C39.46 12.4836 39.3725 12.2735 39.2174 12.1184C39.0623 11.9633 38.8522 11.8758 38.6328 11.875ZM37.8028 15.189H36.1468C35.927 15.1895 35.7164 15.277 35.5609 15.4323C35.4054 15.5876 35.3176 15.7982 35.3168 16.018V17.674H33.6608V16.018C33.66 15.7982 33.5723 15.5876 33.4168 15.4323C33.2613 15.277 33.0506 15.1895 32.8308 15.189H31.1748V13.532H32.8308C33.0506 13.5314 33.2613 13.444 33.4168 13.2887C33.5723 13.1333 33.66 12.9228 33.6608 12.703V11.047H35.3188V12.703C35.3196 12.9228 35.4074 13.1333 35.5629 13.2887C35.7184 13.444 35.929 13.5314 36.1488 13.532H37.8048L37.8028 15.189Z" fill="white"/>
<g opacity="0.5">
<path opacity="0.5" d="M37.7999 13.532V15.188H36.1439C35.9241 15.1885 35.7134 15.276 35.5579 15.4313C35.4024 15.5866 35.3147 15.7972 35.3139 16.017V17.67H33.6579V16.018C33.6571 15.7982 33.5694 15.5876 33.4138 15.4323C33.2583 15.277 33.0477 15.1895 32.8279 15.189H35.3139V12.703C35.3147 12.9228 35.4024 13.1333 35.5579 13.2886C35.7134 13.444 35.9241 13.5314 36.1439 13.532H37.7999Z" fill="white"/>
</g>
<g opacity="0.5">
<path opacity="0.5" d="M35.2009 2.99799C35.2009 2.99799 53.6659 12.941 35.2009 28.565C35.2009 28.565 45.1439 27.145 46.5639 20.043C47.9839 12.941 46.5639 2.99799 35.2009 2.99799Z" fill="white"/>
</g>
<g opacity="0.5">
<path opacity="0.5" d="M47.9839 15.781C47.9839 15.781 52.2449 15.781 52.2449 29.981V64.07H55.0839V21.462L53.6649 15.781H47.9839Z" fill="white"/>
</g>
<g opacity="0.5">
<path opacity="0.5" d="M33.7808 44.188C33.7808 44.188 38.0418 44.188 38.0418 47.029V64.073L40.8828 62.653L42.3028 47.029L39.4618 42.768H33.7808V44.188Z" fill="white"/>
</g>
<path d="M19.5769 62.652V58.391C19.5769 58.0142 19.7266 57.6529 19.993 57.3865C20.2594 57.1201 20.6207 56.9705 20.9974 56.9705C21.3741 56.9705 21.7355 57.1201 22.0018 57.3865C22.2682 57.6529 22.4179 58.0142 22.4179 58.391V62.652C22.4179 63.0287 22.2682 63.39 22.0018 63.6564C21.7355 63.9228 21.3741 64.0725 20.9974 64.0725C20.6207 64.0725 20.2594 63.9228 19.993 63.6564C19.7266 63.39 19.5769 63.0287 19.5769 62.652Z" fill="white"/>
<path d="M46.564 62.652V58.391C46.564 58.0142 46.7136 57.6529 46.98 57.3865C47.2464 57.1201 47.6077 56.9705 47.9845 56.9705C48.3612 56.9705 48.7225 57.1201 48.9889 57.3865C49.2553 57.6529 49.405 58.0142 49.405 58.391V62.652C49.405 63.0287 49.2553 63.39 48.9889 63.6564C48.7225 63.9228 48.3612 64.0725 47.9845 64.0725C47.6077 64.0725 47.2464 63.9228 46.98 63.6564C46.7136 63.39 46.564 63.0287 46.564 62.652Z" fill="white"/>
<g opacity="0.5">
<path opacity="0.5" d="M5.3728 28.564C5.3728 28.564 11.0538 28.564 11.0538 35.664V62.651H13.8948V28.564H5.3728Z" fill="white"/>
</g>
</svg>
