<svg width="64" height="65" viewBox="0 0 64 65" fill="none" xmlns="http://www.w3.org/2000/svg">
<path d="M28.4841 49.211V62.376C28.4841 62.6103 28.4368 62.8423 28.3451 63.058C28.1654 63.479 27.8301 63.8143 27.4091 63.994C27.1934 64.0857 26.9614 64.133 26.7271 64.133H12.6621C12.4277 64.133 12.1957 64.0857 11.9801 63.994C11.559 63.8143 11.2237 63.479 11.0441 63.058C10.9523 62.8423 10.905 62.6103 10.9051 62.376V56.976L8.48206 55.626C6.01979 54.252 3.96899 52.2456 2.54151 49.8139C1.11403 47.3823 0.361638 44.6136 0.362062 41.794V27.574C0.361609 26.8238 0.512626 26.0813 0.806062 25.391C1.38095 24.0409 2.45605 22.9658 3.80606 22.391C4.57428 22.0651 5.40563 21.915 6.23932 21.9516C7.073 21.9883 7.88795 22.2109 8.62458 22.603C9.3612 22.9951 10.0009 23.5469 10.4968 24.2181C10.9928 24.8892 11.3325 25.6627 11.4911 26.482L13.2491 35.217L14.1811 39.84L14.1941 39.93C14.1941 39.959 14.2021 39.988 14.2051 40.016C14.2081 40.044 14.2111 40.073 14.2131 40.102C14.2151 40.131 14.2131 40.161 14.2131 40.192C14.2172 40.3694 14.2369 40.546 14.2721 40.72C14.3061 40.891 14.3564 41.0584 14.4221 41.22C14.4864 41.3773 14.5665 41.5277 14.6611 41.669C14.7555 41.8102 14.8648 41.9409 14.9871 42.059C15.1537 42.2253 15.285 42.4236 15.3731 42.642C15.5443 43.0688 15.5443 43.5452 15.3731 43.972C15.285 44.1901 15.1539 44.3882 14.9876 44.5545C14.8213 44.7208 14.6232 44.8519 14.4051 44.94C13.9783 45.1113 13.5018 45.1113 13.0751 44.94C12.8567 44.8519 12.6584 44.7206 12.4921 44.554C12.4221 44.484 12.3554 44.4126 12.2921 44.34C12.2287 44.2673 12.1651 44.1936 12.1011 44.119C12.0397 44.0443 11.9804 43.9686 11.9231 43.892C11.8657 43.8153 11.8107 43.7373 11.7581 43.658L11.6791 43.526L11.6001 43.394L11.5211 43.262L11.4421 43.13C11.3981 43.0466 11.3564 42.963 11.3171 42.879C11.2777 42.795 11.2397 42.711 11.2031 42.627C11.1671 42.5423 11.1337 42.457 11.1031 42.371C11.0724 42.285 11.0391 42.198 11.0031 42.11C11.0031 42.11 11.0031 42.101 11.0031 42.097C11.0034 42.092 11.0034 42.087 11.0031 42.082C11.0018 42.0759 11.0002 42.0698 10.9981 42.064C10.9952 42.0561 10.9918 42.0484 10.9881 42.041C10.9661 41.962 10.9441 41.882 10.9231 41.801C10.9021 41.72 10.8821 41.638 10.8631 41.556C10.8441 41.474 10.8271 41.391 10.8131 41.307C10.7991 41.223 10.7861 41.14 10.7781 41.057C10.7694 41.0043 10.7617 40.9506 10.7551 40.896C10.7484 40.8413 10.7424 40.786 10.7371 40.73C10.7317 40.674 10.7267 40.6176 10.7221 40.561C10.7174 40.5043 10.7131 40.4473 10.7091 40.39L8.04306 27.17C7.99653 26.9268 7.90787 26.6936 7.78106 26.481C7.59566 26.1705 7.3327 25.9136 7.01799 25.7355C6.70329 25.5573 6.34768 25.4641 5.98606 25.465C5.70258 25.4643 5.42179 25.5201 5.16006 25.629C4.65394 25.8406 4.25181 26.2435 4.04106 26.75C3.93212 27.0117 3.87637 27.2925 3.87706 27.576V41.794C3.87896 43.9902 4.46628 46.1462 5.57856 48.04C6.69083 49.9337 8.28783 51.4967 10.2051 52.568L13.5271 54.414C13.6625 54.4884 13.7871 54.5813 13.8971 54.69C14.0069 54.7981 14.102 54.9201 14.1801 55.053C14.2583 55.1865 14.3188 55.3297 14.3601 55.479C14.4019 55.6301 14.4231 55.7862 14.4231 55.943V60.618H24.9691V49.211C24.969 48.9766 25.0163 48.7446 25.1081 48.529C25.2877 48.1079 25.623 47.7726 26.0441 47.593C26.26 47.5014 26.4921 47.4542 26.7266 47.4542C26.9611 47.4542 27.1932 47.5014 27.4091 47.593C27.8301 47.7726 28.1654 48.1079 28.3451 48.529C28.4368 48.7446 28.4841 48.9766 28.4841 49.211Z" fill="white"/>
<path d="M28.484 49.2109C28.4841 49.4453 28.4368 49.6773 28.345 49.8929C28.1654 50.314 27.83 50.6493 27.409 50.8289C27.1931 50.9205 26.961 50.9677 26.7265 50.9677C26.492 50.9677 26.2599 50.9205 26.044 50.8289C25.623 50.6493 25.2877 50.314 25.108 49.8929C25.0163 49.6773 24.969 49.4453 24.969 49.2109C24.969 48.1479 24.949 47.3109 24.895 46.6229C24.862 46.0585 24.7667 45.4995 24.611 44.9559C24.4829 44.5361 24.2855 44.1407 24.027 43.7859C23.7324 43.3938 23.4067 43.0259 23.053 42.6859L18.712 38.3319C18.4686 38.0856 18.1758 37.8934 17.853 37.7679C17.2071 37.5175 16.4909 37.5175 15.845 37.7679C15.5222 37.8934 15.2295 38.0856 14.986 38.3319C14.7409 38.5762 14.5464 38.8663 14.4136 39.1858C14.2808 39.5054 14.2123 39.8479 14.212 40.1939C14.2161 40.3713 14.2359 40.548 14.271 40.7219C14.3051 40.893 14.3553 41.0604 14.421 41.2219C14.4854 41.3793 14.5655 41.5297 14.66 41.6709C14.7545 41.8122 14.8638 41.9429 14.986 42.0609L19.186 46.2609C19.3527 46.4272 19.484 46.6256 19.572 46.8439C19.7433 47.2707 19.7433 47.7471 19.572 48.1739C19.484 48.392 19.3529 48.5901 19.1865 48.7565C19.0202 48.9228 18.8221 49.0539 18.604 49.1419C18.1773 49.3133 17.7008 49.3133 17.274 49.1419C17.0556 49.0539 16.8573 48.9226 16.691 48.7559L12.491 44.5559C12.421 44.4859 12.3544 44.4146 12.291 44.3419C12.2277 44.2693 12.163 44.1949 12.097 44.1189C12.0357 44.0443 11.9764 43.9686 11.919 43.8919C11.8617 43.8153 11.8067 43.7373 11.754 43.6579L11.673 43.5249L11.597 43.3939L11.514 43.2619L11.435 43.1299C11.391 43.0466 11.3494 42.9629 11.31 42.8789C11.2707 42.7949 11.233 42.7109 11.197 42.6269C11.161 42.5423 11.1277 42.4569 11.097 42.3709C11.0664 42.2849 11.033 42.1979 10.997 42.1099C10.997 42.1099 10.997 42.1019 10.997 42.0939C10.9974 42.0889 10.9974 42.0839 10.997 42.0789C10.9958 42.0728 10.9941 42.0668 10.992 42.0609C10.9891 42.0531 10.9858 42.0454 10.982 42.0379C10.96 41.9589 10.938 41.8789 10.917 41.7979C10.896 41.7169 10.876 41.6349 10.857 41.5529C10.838 41.4709 10.817 41.3939 10.803 41.3059C10.789 41.2179 10.776 41.1389 10.767 41.0559C10.7584 41.0033 10.7507 40.9493 10.744 40.8939C10.7374 40.8386 10.7314 40.7836 10.726 40.7289C10.72 40.6723 10.7147 40.6156 10.71 40.5589C10.7054 40.5023 10.701 40.4453 10.697 40.3879V40.2819C10.6963 39.8575 10.7355 39.434 10.814 39.0169C10.8898 38.6149 11.005 38.2213 11.158 37.8419C11.3091 37.4686 11.4974 37.1115 11.72 36.7759C11.9447 36.4377 12.2026 36.1228 12.49 35.8359C12.5474 35.7786 12.6064 35.7226 12.667 35.6679C12.7277 35.6133 12.79 35.5599 12.854 35.5079C12.9207 35.4566 12.9854 35.4066 13.048 35.3579C13.1107 35.3093 13.1774 35.2633 13.248 35.2199C13.8382 34.8029 14.4983 34.4951 15.197 34.3109C15.893 34.1264 16.6149 34.0588 17.333 34.1109C18.0508 34.1616 18.7548 34.3337 19.415 34.6199C20.0836 34.9094 20.6918 35.3219 21.208 35.8359L25.549 40.1939C26.1197 40.7516 26.6336 41.3646 27.083 42.0239C27.4681 42.6011 27.7676 43.2309 27.972 43.8939C28.1898 44.6362 28.3279 45.3995 28.384 46.1709C28.46 47.0419 28.484 48.0339 28.484 49.2109Z" fill="white"/>
<path d="M28.4841 49.211V62.376C28.4841 62.6103 28.4368 62.8423 28.3451 63.058C28.1654 63.479 27.8301 63.8143 27.4091 63.994C27.1934 64.0857 26.9614 64.133 26.7271 64.133H12.6621C12.4277 64.133 12.1957 64.0857 11.9801 63.994C11.559 63.8143 11.2237 63.479 11.0441 63.058C10.9523 62.8423 10.905 62.6103 10.9051 62.376V56.976L8.48206 55.626C6.01979 54.252 3.96899 52.2456 2.54151 49.8139C1.11403 47.3823 0.361638 44.6136 0.362062 41.794V27.574C0.361609 26.8238 0.512626 26.0813 0.806062 25.391C1.38095 24.0409 2.45605 22.9658 3.80606 22.391C4.57428 22.0651 5.40563 21.915 6.23932 21.9516C7.073 21.9883 7.88795 22.2109 8.62458 22.603C9.3612 22.9951 10.0009 23.5469 10.4968 24.2181C10.9928 24.8892 11.3325 25.6627 11.4911 26.482L13.2491 35.217L14.1811 39.84L14.1941 39.93C14.1941 39.959 14.2021 39.988 14.2051 40.016C14.2081 40.044 14.2111 40.073 14.2131 40.102C14.2151 40.131 14.2131 40.161 14.2131 40.192C14.2172 40.3694 14.2369 40.546 14.2721 40.72C14.3061 40.891 14.3564 41.0584 14.4221 41.22C14.4864 41.3773 14.5665 41.5277 14.6611 41.669C14.7555 41.8102 14.8648 41.9409 14.9871 42.059C15.1537 42.2253 15.285 42.4236 15.3731 42.642C15.5443 43.0688 15.5443 43.5452 15.3731 43.972C15.285 44.1901 15.1539 44.3882 14.9876 44.5545C14.8213 44.7208 14.6232 44.8519 14.4051 44.94C13.9783 45.1113 13.5018 45.1113 13.0751 44.94C12.8567 44.8519 12.6584 44.7206 12.4921 44.554C12.4221 44.484 12.3554 44.4126 12.2921 44.34C12.2287 44.2673 12.1651 44.1936 12.1011 44.119C12.0397 44.0443 11.9804 43.9686 11.9231 43.892C11.8657 43.8153 11.8107 43.7373 11.7581 43.658L11.6791 43.526L11.6001 43.394L11.5211 43.262L11.4421 43.13C11.3981 43.0466 11.3564 42.963 11.3171 42.879C11.2777 42.795 11.2397 42.711 11.2031 42.627C11.1671 42.5423 11.1337 42.457 11.1031 42.371C11.0724 42.285 11.0391 42.198 11.0031 42.11C11.0031 42.11 11.0031 42.101 11.0031 42.097C11.0034 42.092 11.0034 42.087 11.0031 42.082C11.0018 42.0759 11.0002 42.0698 10.9981 42.064C10.9952 42.0561 10.9918 42.0484 10.9881 42.041C10.9661 41.962 10.9441 41.882 10.9231 41.801C10.9021 41.72 10.8821 41.638 10.8631 41.556C10.8441 41.474 10.8271 41.391 10.8131 41.307C10.7991 41.223 10.7861 41.14 10.7781 41.057C10.7694 41.0043 10.7617 40.9506 10.7551 40.896C10.7484 40.8413 10.7424 40.786 10.7371 40.73C10.7317 40.674 10.7267 40.6176 10.7221 40.561C10.7174 40.5043 10.7131 40.4473 10.7091 40.39L8.04306 27.17C7.99653 26.9268 7.90787 26.6936 7.78106 26.481C7.59566 26.1705 7.3327 25.9136 7.01799 25.7355C6.70329 25.5573 6.34768 25.4641 5.98606 25.465C5.70258 25.4643 5.42179 25.5201 5.16006 25.629C4.65394 25.8406 4.25181 26.2435 4.04106 26.75C3.93212 27.0117 3.87637 27.2925 3.87706 27.576V41.794C3.87896 43.9902 4.46628 46.1462 5.57856 48.04C6.69083 49.9337 8.28783 51.4967 10.2051 52.568L13.5271 54.414C13.6625 54.4884 13.7871 54.5813 13.8971 54.69C14.0069 54.7981 14.102 54.9201 14.1801 55.053C14.2583 55.1865 14.3188 55.3297 14.3601 55.479C14.4019 55.6301 14.4231 55.7862 14.4231 55.943V60.618H24.9691V49.211C24.969 48.9766 25.0163 48.7446 25.1081 48.529C25.2877 48.1079 25.623 47.7726 26.0441 47.593C26.26 47.5014 26.4921 47.4542 26.7266 47.4542C26.9611 47.4542 27.1932 47.5014 27.4091 47.593C27.8301 47.7726 28.1654 48.1079 28.3451 48.529C28.4368 48.7446 28.4841 48.9766 28.4841 49.211Z" fill="white"/>
<path opacity="0.5" d="M16.6901 48.7539C16.7161 48.7799 16.7441 48.8069 16.7721 48.8329C16.8001 48.8589 16.8301 48.8839 16.8611 48.9079C16.8921 48.9319 16.9241 48.9549 16.9611 48.9769C16.9933 48.9984 17.0267 49.0181 17.0611 49.0359C16.8928 49.1308 16.7105 49.1983 16.5211 49.2359C16.3357 49.2729 16.1457 49.28 15.9581 49.2569C15.7695 49.2337 15.5861 49.1797 15.4151 49.0969C15.2367 49.0104 15.0741 48.8944 14.9341 48.7539L10.7341 44.5539C10.6641 44.4839 10.5974 44.4126 10.5341 44.3399C10.4708 44.2673 10.4071 44.1936 10.3431 44.1189C10.2818 44.0443 10.2224 43.9686 10.1651 43.8919C10.1078 43.8153 10.0494 43.7369 9.99009 43.6569L9.91109 43.5249L9.83209 43.3929L9.75709 43.2649L9.67809 43.1329C9.63409 43.0536 9.59142 42.9726 9.55009 42.8899C9.50875 42.8073 9.46942 42.7229 9.43209 42.6369C9.39475 42.5509 9.36142 42.4643 9.33209 42.3769C9.30009 42.2899 9.27009 42.2019 9.24409 42.1139C9.24409 42.1139 9.24409 42.1049 9.24409 42.1009C9.24443 42.0959 9.24443 42.0909 9.24409 42.0859C9.24286 42.0798 9.24119 42.0738 9.23909 42.0679C9.2362 42.0601 9.23286 42.0524 9.22909 42.0449C9.20242 41.9656 9.17842 41.8856 9.15709 41.8049C9.13575 41.7243 9.11342 41.6406 9.09009 41.5539C9.07275 41.4713 9.05742 41.3883 9.04409 41.3049C9.03075 41.2216 9.01975 41.1383 9.01109 41.0549C9.00242 41.0023 8.99475 40.9486 8.98809 40.8939C8.98142 40.8393 8.97542 40.7839 8.97009 40.7279C8.96475 40.6719 8.95975 40.6156 8.95509 40.5589C8.95042 40.5023 8.94575 40.4453 8.94109 40.3879L6.29009 27.1649C6.25645 26.9923 6.20206 26.8245 6.12809 26.6649C6.05525 26.5161 5.96495 26.3764 5.85909 26.2489C5.75647 26.1214 5.63897 26.0066 5.50909 25.9069C5.37987 25.8075 5.2392 25.7239 5.09009 25.6579C5.15746 25.6267 5.22658 25.5993 5.29709 25.5759C5.36963 25.552 5.4434 25.532 5.51809 25.5159C5.5947 25.4992 5.67214 25.4865 5.75009 25.4779C5.82979 25.4692 5.90991 25.4649 5.99009 25.4649C6.35102 25.4648 6.70582 25.5583 7.01976 25.7364C7.3337 25.9145 7.59603 26.171 7.78109 26.4809C7.90787 26.6936 7.99654 26.9268 8.04309 27.1699L10.6971 40.3869C10.7018 40.4443 10.7061 40.5013 10.7101 40.5579C10.7141 40.6146 10.7191 40.6709 10.7251 40.7269C10.7304 40.7829 10.7364 40.8383 10.7431 40.8929C10.7498 40.9476 10.7574 41.0013 10.7661 41.0539C10.7748 41.1373 10.7858 41.2206 10.7991 41.3039C10.8124 41.3873 10.8278 41.4703 10.8451 41.5529C10.8624 41.6356 10.8821 41.7173 10.9041 41.7979C10.9261 41.8786 10.9504 41.9586 10.9771 42.0379C10.9809 42.0454 10.9842 42.0531 10.9871 42.0609C10.9892 42.0668 10.9908 42.0728 10.9921 42.0789C10.9924 42.0839 10.9924 42.0889 10.9921 42.0939C10.9921 42.0939 10.9921 42.1029 10.9921 42.1069C11.0188 42.1949 11.0481 42.2826 11.0801 42.3699C11.1121 42.4573 11.1454 42.5439 11.1801 42.6299C11.2174 42.7159 11.2568 42.8003 11.2981 42.8829C11.3394 42.9656 11.3821 43.0466 11.4261 43.1259L11.5051 43.2579L11.5841 43.3899L11.6631 43.5219L11.7421 43.6539C11.7948 43.7333 11.8498 43.8113 11.9071 43.8879C11.9644 43.9646 12.0254 44.0413 12.0901 44.1179C12.1514 44.1926 12.2151 44.2663 12.2811 44.3389C12.3471 44.4116 12.4138 44.4829 12.4811 44.5529L16.6901 48.7539Z" fill="white"/>
<path opacity="0.5" d="M24.97 49.2109V60.6179H23.211V49.2109C23.211 48.1479 23.191 47.3109 23.137 46.6229C23.1039 46.0585 23.0087 45.4995 22.853 44.9559C22.7251 44.5365 22.528 44.1414 22.27 43.7869C21.9753 43.3948 21.6496 43.0269 21.296 42.6869L16.954 38.3309C16.8847 38.2618 16.8113 38.197 16.734 38.1369C16.6577 38.0775 16.5779 38.0227 16.495 37.9729C16.4126 37.9238 16.3274 37.8794 16.24 37.8399C16.1519 37.7999 16.0618 37.7645 15.97 37.7339C16.4392 37.5759 16.9419 37.5448 17.427 37.6439C17.6676 37.692 17.9002 37.7738 18.118 37.8869C18.3379 38.0023 18.5383 38.1515 18.712 38.3289L23.053 42.6869C23.4066 43.0269 23.7323 43.3947 24.027 43.7869C24.2855 44.1417 24.4829 44.5371 24.611 44.9569C24.7667 45.5005 24.8619 46.0595 24.895 46.6239C24.949 47.3089 24.97 48.1479 24.97 49.2109Z" fill="white"/>
<path d="M28.484 49.2109C28.4841 49.4453 28.4368 49.6773 28.345 49.8929C28.1654 50.314 27.83 50.6493 27.409 50.8289C27.1931 50.9205 26.961 50.9677 26.7265 50.9677C26.492 50.9677 26.2599 50.9205 26.044 50.8289C25.623 50.6493 25.2877 50.314 25.108 49.8929C25.0163 49.6773 24.969 49.4453 24.969 49.2109C24.969 48.1479 24.949 47.3109 24.895 46.6229C24.862 46.0585 24.7667 45.4995 24.611 44.9559C24.4829 44.5361 24.2855 44.1407 24.027 43.7859C23.7324 43.3938 23.4067 43.0259 23.053 42.6859L18.712 38.3319C18.4686 38.0856 18.1758 37.8934 17.853 37.7679C17.2071 37.5175 16.4909 37.5175 15.845 37.7679C15.5222 37.8934 15.2295 38.0856 14.986 38.3319C14.7409 38.5762 14.5464 38.8663 14.4136 39.1858C14.2808 39.5054 14.2123 39.8479 14.212 40.1939C14.2161 40.3713 14.2359 40.548 14.271 40.7219C14.3051 40.893 14.3553 41.0604 14.421 41.2219C14.4854 41.3793 14.5655 41.5297 14.66 41.6709C14.7545 41.8122 14.8638 41.9429 14.986 42.0609L19.186 46.2609C19.3527 46.4272 19.484 46.6256 19.572 46.8439C19.7433 47.2707 19.7433 47.7471 19.572 48.1739C19.484 48.392 19.3529 48.5901 19.1865 48.7565C19.0202 48.9228 18.8221 49.0539 18.604 49.1419C18.1773 49.3133 17.7008 49.3133 17.274 49.1419C17.0556 49.0539 16.8573 48.9226 16.691 48.7559L12.491 44.5559C12.421 44.4859 12.3544 44.4146 12.291 44.3419C12.2277 44.2693 12.163 44.1949 12.097 44.1189C12.0357 44.0443 11.9764 43.9686 11.919 43.8919C11.8617 43.8153 11.8067 43.7373 11.754 43.6579L11.673 43.5249L11.597 43.3939L11.514 43.2619L11.435 43.1299C11.391 43.0466 11.3494 42.9629 11.31 42.8789C11.2707 42.7949 11.233 42.7109 11.197 42.6269C11.161 42.5423 11.1277 42.4569 11.097 42.3709C11.0664 42.2849 11.033 42.1979 10.997 42.1099C10.997 42.1099 10.997 42.1019 10.997 42.0939C10.9974 42.0889 10.9974 42.0839 10.997 42.0789C10.9958 42.0728 10.9941 42.0668 10.992 42.0609C10.9891 42.0531 10.9858 42.0454 10.982 42.0379C10.96 41.9589 10.938 41.8789 10.917 41.7979C10.896 41.7169 10.876 41.6349 10.857 41.5529C10.838 41.4709 10.817 41.3939 10.803 41.3059C10.789 41.2179 10.776 41.1389 10.767 41.0559C10.7584 41.0033 10.7507 40.9493 10.744 40.8939C10.7374 40.8386 10.7314 40.7836 10.726 40.7289C10.72 40.6723 10.7147 40.6156 10.71 40.5589C10.7054 40.5023 10.701 40.4453 10.697 40.3879V40.2819C10.6963 39.8575 10.7355 39.434 10.814 39.0169C10.8898 38.6149 11.005 38.2213 11.158 37.8419C11.3091 37.4686 11.4974 37.1115 11.72 36.7759C11.9447 36.4377 12.2026 36.1228 12.49 35.8359C12.5474 35.7786 12.6064 35.7226 12.667 35.6679C12.7277 35.6133 12.79 35.5599 12.854 35.5079C12.9207 35.4566 12.9854 35.4066 13.048 35.3579C13.1107 35.3093 13.1774 35.2633 13.248 35.2199C13.8382 34.8029 14.4983 34.4951 15.197 34.3109C15.893 34.1264 16.6149 34.0588 17.333 34.1109C18.0508 34.1616 18.7548 34.3337 19.415 34.6199C20.0836 34.9094 20.6918 35.3219 21.208 35.8359L25.549 40.1939C26.1197 40.7516 26.6336 41.3646 27.083 42.0239C27.4681 42.6011 27.7676 43.2309 27.972 43.8939C28.1898 44.6362 28.3279 45.3995 28.384 46.1709C28.46 47.0419 28.484 48.0339 28.484 49.2109Z" fill="white"/>
<path d="M63.6371 27.574V41.794C63.6377 44.6139 62.8851 47.3828 61.4572 49.8145C60.0294 52.2462 57.978 54.2525 55.5151 55.626L53.0911 56.98V62.38C53.0912 62.6143 53.0439 62.8463 52.9521 63.062C52.7725 63.483 52.4372 63.8183 52.0161 63.998C51.8005 64.0897 51.5685 64.137 51.3341 64.137H37.2731C37.0388 64.137 36.8068 64.0897 36.5911 63.998C36.1701 63.8183 35.8348 63.483 35.6551 63.062C35.5625 62.8451 35.5149 62.6117 35.5151 62.376V49.211C35.5151 48.9766 35.5624 48.7446 35.6541 48.529C35.8338 48.1079 36.1691 47.7726 36.5901 47.593C36.806 47.5014 37.0381 47.4542 37.2726 47.4542C37.5071 47.4542 37.7392 47.5014 37.9551 47.593C38.3762 47.7726 38.7115 48.1079 38.8911 48.529C38.9829 48.7446 39.0302 48.9766 39.0301 49.211V60.618H49.5761V55.943C49.5761 55.7862 49.5973 55.6301 49.6391 55.479C49.6804 55.3298 49.7409 55.1866 49.8191 55.053C49.8972 54.9201 49.9923 54.7981 50.1021 54.69C50.2122 54.5813 50.3367 54.4885 50.4721 54.414L53.7941 52.568C55.7119 51.4973 57.3093 49.9344 58.4216 48.0405C59.534 46.1466 60.121 43.9903 60.1221 41.794V27.574C60.1228 27.2905 60.0671 27.0097 59.9581 26.748C59.747 26.2422 59.3449 25.8401 58.8391 25.629C58.5774 25.5201 58.2966 25.4643 58.0131 25.465C57.5279 25.463 57.0571 25.6302 56.6817 25.9377C56.3064 26.2452 56.0498 26.6738 55.9561 27.15L53.3021 40.405C53.3021 40.436 53.3021 40.465 53.3021 40.495C53.3021 40.525 53.3021 40.553 53.2941 40.581C53.2861 40.609 53.2871 40.638 53.2831 40.667L53.2701 40.757C53.2483 41.0178 53.2099 41.277 53.1551 41.533C53.1017 41.7845 53.0322 42.0323 52.9471 42.275C52.8623 42.5145 52.7621 42.7483 52.6471 42.975C52.5344 43.199 52.4071 43.4155 52.2661 43.623C52.2401 43.658 52.2141 43.693 52.1901 43.728L52.1171 43.833L52.0441 43.938C52.0191 43.973 51.9941 44.008 51.9681 44.043C51.9421 44.078 51.8971 44.131 51.8601 44.175C51.8231 44.219 51.7851 44.262 51.7471 44.305C51.7091 44.348 51.6701 44.39 51.6301 44.432C51.5901 44.474 51.5511 44.514 51.5121 44.554C51.3458 44.7206 51.1475 44.8519 50.9291 44.94C50.5024 45.1113 50.0259 45.1113 49.5991 44.94C49.381 44.8519 49.1829 44.7208 49.0166 44.5545C48.8503 44.3882 48.7192 44.1901 48.6311 43.972C48.4599 43.5452 48.4599 43.0688 48.6311 42.642C48.7192 42.4236 48.8505 42.2253 49.0171 42.059C49.1393 41.9409 49.2486 41.8102 49.3431 41.669C49.4375 41.5283 49.5176 41.3785 49.5821 41.222C49.6474 41.0637 49.6976 40.8996 49.7321 40.732C49.7672 40.5614 49.7869 40.388 49.7911 40.214C49.7911 40.188 49.7911 40.158 49.7911 40.127C49.7911 40.096 49.7911 40.063 49.7991 40.027C49.8071 39.991 49.8061 39.961 49.8101 39.927C49.8141 39.893 49.8191 39.866 49.8231 39.84L50.7541 35.217L52.5151 26.467C52.7615 25.1949 53.4441 24.0487 54.4451 23.226C55.2692 22.5517 56.2676 22.125 57.3244 21.9955C58.3813 21.8659 59.4532 22.0389 60.4157 22.4941C61.3781 22.9494 62.1918 23.6684 62.762 24.5676C63.3322 25.4667 63.6357 26.5092 63.6371 27.574Z" fill="white"/>
<path opacity="0.5" d="M44.8131 48.7539C44.8391 48.7799 44.8671 48.8069 44.8951 48.8329C44.9231 48.8589 44.9531 48.8839 44.9841 48.9079C45.0151 48.9319 45.0471 48.9549 45.0841 48.9769C45.1164 48.9984 45.1497 49.0181 45.1841 49.0359C45.0159 49.1308 44.8336 49.1983 44.6441 49.2359C44.4588 49.2729 44.2687 49.28 44.0811 49.2569C43.8926 49.2337 43.7092 49.1797 43.5381 49.0969C43.3597 49.0104 43.1971 48.8944 43.0571 48.7539C42.8905 48.5876 42.7592 48.3893 42.6711 48.1709C42.4999 47.7441 42.4999 47.2677 42.6711 46.8409C42.7592 46.6226 42.8905 46.4243 43.0571 46.2579L47.2571 42.0579C47.3793 41.9399 47.4886 41.8091 47.5831 41.6679C47.6775 41.5273 47.7576 41.3775 47.8221 41.2209C47.8874 41.0627 47.9376 40.8986 47.9721 40.7309C48.0072 40.5604 48.0269 40.387 48.0311 40.2129C48.0306 40.0363 48.0129 39.8601 47.9781 39.6869C47.8777 39.1732 47.6264 38.701 47.2561 38.3309C47.1866 38.2618 47.1128 38.197 47.0351 38.1369C46.9592 38.0775 46.8797 38.0228 46.7971 37.9729C46.7144 37.9238 46.6289 37.8794 46.5411 37.8399C46.4531 37.7999 46.3629 37.7645 46.2711 37.7339C46.7404 37.5759 47.243 37.5449 47.7281 37.6439C47.9688 37.692 48.2014 37.7738 48.4191 37.8869C48.639 38.0023 48.8395 38.1515 49.0131 38.3289C49.3836 38.6997 49.635 39.1725 49.7351 39.6869C49.7697 39.8611 49.7871 40.0383 49.7871 40.2159C49.7829 40.39 49.7632 40.5634 49.7281 40.7339C49.6936 40.9016 49.6434 41.0657 49.5781 41.2239C49.5136 41.3805 49.4335 41.5303 49.3391 41.6709C49.2446 41.8121 49.1353 41.9429 49.0131 42.0609L44.8131 46.2609C44.6465 46.4273 44.5152 46.6256 44.4271 46.8439C44.2559 47.2707 44.2559 47.7471 44.4271 48.1739C44.5155 48.3912 44.6468 48.5885 44.8131 48.7539Z" fill="white"/>
<path opacity="0.5" d="M60.1181 27.5739V41.7939C60.1181 42.8954 59.9701 43.9919 59.6781 45.0539C59.3908 46.0996 58.9672 47.1028 58.4181 48.0379C57.8689 48.9732 57.1992 49.8322 56.4261 50.5929C55.6408 51.3649 54.7556 52.0281 53.7941 52.5649L50.4721 54.4129C50.3366 54.4874 50.2121 54.5803 50.1021 54.6889C49.9919 54.7973 49.8964 54.9197 49.8181 55.0529C49.7399 55.1865 49.6794 55.3297 49.6381 55.4789C49.5963 55.6301 49.5751 55.7861 49.5751 55.9429V60.6179H47.8181V55.9429C47.8181 55.7861 47.8393 55.6301 47.8811 55.4789C47.9224 55.3297 47.9829 55.1865 48.0611 55.0529C48.1392 54.9201 48.2343 54.798 48.3441 54.6899C48.4541 54.5813 48.5786 54.4884 48.7141 54.4139L52.0361 52.5649C52.9988 52.0274 53.8851 51.3631 54.6711 50.5899C55.4442 49.8292 56.1139 48.9702 56.6631 48.0349C57.2125 47.0999 57.6365 46.0966 57.9241 45.0509C58.2161 43.9889 58.3641 42.8924 58.3641 41.7909V27.5739C58.3646 27.3654 58.3349 27.158 58.2761 26.9579C58.1919 26.6737 58.0479 26.4107 57.8539 26.1865C57.6599 25.9623 57.4203 25.7821 57.1511 25.6579C57.2163 25.6271 57.2831 25.5997 57.3511 25.5759C57.4223 25.5521 57.4948 25.532 57.5681 25.5159C57.6407 25.4993 57.7141 25.4866 57.7881 25.4779C57.8625 25.4693 57.9373 25.465 58.0121 25.4649C58.2956 25.4643 58.5764 25.52 58.8381 25.6289C59.3442 25.8399 59.7467 26.242 59.9581 26.7479C60.0657 27.0099 60.1201 27.2907 60.1181 27.5739Z" fill="white"/>
<path opacity="0.5" d="M19.1871 48.7539C19.0471 48.8944 18.8845 49.0104 18.7061 49.0969C18.5351 49.1797 18.3516 49.2337 18.1631 49.2569C17.9755 49.28 17.7854 49.2729 17.6001 49.2359C17.4106 49.1983 17.2284 49.1308 17.0601 49.0359C17.0945 49.0181 17.1279 48.9984 17.1601 48.9769C17.1931 48.9559 17.2251 48.9329 17.2601 48.9079C17.2951 48.8829 17.3201 48.8589 17.3491 48.8329C17.3781 48.8069 17.4051 48.7809 17.4311 48.7539C17.5978 48.5876 17.7291 48.3893 17.8171 48.1709C17.9884 47.7442 17.9884 47.2677 17.8171 46.8409C17.7291 46.6225 17.5978 46.4242 17.4311 46.2579L13.2311 42.0579C13.1088 41.9399 12.9995 41.8092 12.9051 41.6679C12.8105 41.5267 12.7305 41.3762 12.6661 41.2189C12.6004 41.0574 12.5501 40.89 12.5161 40.7189C12.4805 40.5464 12.4601 40.371 12.4551 40.1949C12.4554 39.4957 12.7335 38.8252 13.2281 38.3309C13.4016 38.1527 13.6021 38.0029 13.8221 37.8869C14.0401 37.7737 14.2731 37.6919 14.5141 37.6439C14.9992 37.5449 15.5019 37.5759 15.9711 37.7339C15.8793 37.7645 15.7892 37.7999 15.7011 37.8399C15.6133 37.8794 15.5278 37.9238 15.4451 37.9729C15.3625 38.0228 15.283 38.0775 15.2071 38.1369C15.1294 38.1973 15.0556 38.2624 14.9861 38.3319C14.7411 38.5764 14.5467 38.8668 14.414 39.1864C14.2814 39.5061 14.2131 39.8488 14.2131 40.1949C14.2172 40.3723 14.2369 40.549 14.2721 40.7229C14.3061 40.894 14.3564 41.0614 14.4221 41.2229C14.4864 41.3803 14.5665 41.5307 14.6611 41.6719C14.7555 41.8132 14.8648 41.9439 14.9871 42.0619L19.1871 46.2619C19.3538 46.4282 19.4851 46.6265 19.5731 46.8449C19.7444 47.2717 19.7444 47.7482 19.5731 48.1749C19.4846 48.3919 19.3533 48.5888 19.1871 48.7539Z" fill="white"/>
<path opacity="0.5" d="M57.1521 25.6579C57.0031 25.7237 56.8624 25.8069 56.7331 25.9059C56.471 26.107 56.2605 26.3675 56.1191 26.6659C56.0457 26.8208 55.9913 26.984 55.9571 27.1519L53.3021 40.4049C53.3021 40.4359 53.3021 40.4649 53.3021 40.4949C53.3021 40.5249 53.3021 40.5529 53.2941 40.5809C53.2861 40.6089 53.2871 40.6379 53.2831 40.6669L53.2701 40.7569C53.2482 41.0178 53.2098 41.277 53.1551 41.5329C53.1016 41.7845 53.0321 42.0323 52.9471 42.2749C52.8623 42.5145 52.7621 42.7483 52.6471 42.9749C52.5343 43.199 52.4071 43.4155 52.2661 43.6229C52.2441 43.6579 52.2211 43.6929 52.1971 43.7279C52.1731 43.7629 52.1481 43.7979 52.1231 43.8329L52.0461 43.9379L51.9671 44.0429C51.9317 44.0869 51.8957 44.1309 51.8591 44.1749C51.8224 44.2189 51.7847 44.2623 51.7461 44.3049C51.7074 44.3476 51.6684 44.3899 51.6291 44.4319C51.5897 44.4739 51.5504 44.5146 51.5111 44.5539L47.3111 48.7539C47.1711 48.8944 47.0085 49.0104 46.8301 49.0969C46.6591 49.1797 46.4756 49.2337 46.2871 49.2569C46.0995 49.28 45.9094 49.2729 45.7241 49.2359C45.5346 49.1983 45.3524 49.1308 45.1841 49.0359C45.2185 49.0181 45.2519 48.9984 45.2841 48.9769C45.3171 48.9559 45.3491 48.9329 45.3841 48.9079C45.4191 48.8829 45.4441 48.8589 45.4731 48.8329C45.5021 48.8069 45.5291 48.7809 45.5551 48.7539L49.7551 44.5539C49.7944 44.5146 49.8337 44.4739 49.8731 44.4319C49.9124 44.3899 49.9487 44.3476 49.9821 44.3049C50.0207 44.2623 50.0584 44.2189 50.0951 44.1749C50.1317 44.1309 50.1677 44.0869 50.2031 44.0429L50.2821 43.9379L50.3591 43.8329C50.3844 43.7976 50.4091 43.7626 50.4331 43.7279C50.4571 43.6929 50.4801 43.6579 50.5021 43.6229C50.6431 43.4155 50.7703 43.199 50.8831 42.9749C50.9981 42.7483 51.0983 42.5145 51.1831 42.2749C51.2682 42.0323 51.3376 41.7845 51.3911 41.5329C51.4458 41.277 51.4842 41.0178 51.5061 40.7569L51.5191 40.6669C51.5191 40.6379 51.5271 40.6089 51.5301 40.5809C51.5331 40.5529 51.5361 40.5239 51.5381 40.4949C51.5401 40.4659 51.5381 40.4359 51.5381 40.4049L54.1991 27.1519C54.293 26.676 54.5494 26.2474 54.9245 25.9397C55.2996 25.6319 55.7699 25.4641 56.2551 25.4649C56.3343 25.465 56.4134 25.4693 56.4921 25.4779C56.57 25.4865 56.6475 25.4992 56.7241 25.5159C56.7991 25.5323 56.8732 25.5526 56.9461 25.5769C57.0162 25.6 57.085 25.627 57.1521 25.6579Z" fill="white"/>
<path d="M53.3021 40.1939C53.3021 40.2419 53.3021 40.2939 53.3021 40.3359C53.3021 40.3779 53.3021 40.4289 53.2941 40.4749C53.2861 40.5209 53.2871 40.5669 53.2831 40.6139C53.2791 40.6609 53.2741 40.7079 53.2701 40.7559C53.2483 41.0168 53.2099 41.276 53.1551 41.5319C53.1017 41.7835 53.0322 42.0313 52.9471 42.2739C52.8623 42.5135 52.7621 42.7473 52.6471 42.9739C52.5344 43.198 52.4071 43.4145 52.2661 43.6219C52.2401 43.6569 52.2141 43.6919 52.1901 43.7269L52.1171 43.8319L52.0441 43.9369C52.0191 43.9719 51.9941 44.0069 51.9681 44.0419C51.9421 44.0769 51.8971 44.1299 51.8601 44.1739C51.8231 44.2179 51.7851 44.2609 51.7471 44.3039C51.7091 44.3469 51.6701 44.3889 51.6301 44.4309C51.5901 44.4729 51.5511 44.5129 51.5121 44.5529L47.3121 48.7529C47.1458 48.9196 46.9475 49.0509 46.7291 49.1389C46.3024 49.3103 45.8259 49.3103 45.3991 49.1389C45.181 49.0509 44.9829 48.9198 44.8166 48.7535C44.6503 48.5871 44.5192 48.389 44.4311 48.1709C44.2598 47.7442 44.2598 47.2677 44.4311 46.8409C44.5192 46.6226 44.6505 46.4242 44.8171 46.2579L49.0171 42.0579C49.1393 41.9398 49.2486 41.8091 49.3431 41.6679C49.4375 41.5273 49.5176 41.3775 49.5821 41.2209C49.6474 41.0627 49.6976 40.8986 49.7321 40.7309C49.7672 40.5604 49.7869 40.387 49.7911 40.2129C49.7911 40.0353 49.7737 39.8582 49.7391 39.6839C49.6374 39.1714 49.3854 38.7007 49.0151 38.3319C48.7716 38.0856 48.4789 37.8935 48.1561 37.7679C47.5102 37.5175 46.794 37.5175 46.1481 37.7679C45.8253 37.8935 45.5326 38.0856 45.2891 38.3319L40.9461 42.6939C40.5925 43.0339 40.2668 43.4017 39.9721 43.7939C39.7137 44.1487 39.5163 44.5441 39.3881 44.9639C39.2324 45.5075 39.1372 46.0665 39.1041 46.6309C39.0491 47.3169 39.0301 48.1559 39.0301 49.2189C39.0302 49.4533 38.9829 49.6853 38.8911 49.9009C38.7115 50.322 38.3762 50.6573 37.9551 50.8369C37.7392 50.9285 37.5071 50.9757 37.2726 50.9757C37.0381 50.9757 36.806 50.9285 36.5901 50.8369C36.1678 50.6556 35.8323 50.3176 35.6541 49.8939C35.5622 49.678 35.515 49.4457 35.5151 49.2109C35.5151 48.0329 35.5391 47.0409 35.6151 46.1759C35.6709 45.4028 35.809 44.6378 36.0271 43.8939C36.2313 43.231 36.5304 42.6011 36.9151 42.0239C37.3649 41.3646 37.8791 40.7516 38.4501 40.1939L42.7921 35.8359C43.3081 35.322 43.916 34.9095 44.5841 34.6199C45.2447 34.3336 45.949 34.1615 46.6671 34.1109C47.3853 34.0588 48.1071 34.1264 48.8031 34.3109C49.5027 34.4951 50.1635 34.8034 50.7541 35.2209C50.8201 35.2649 50.8861 35.3109 50.9541 35.3589C51.0221 35.4069 51.0841 35.4589 51.1481 35.5089C51.2121 35.5589 51.2741 35.6089 51.3351 35.6689C51.3961 35.7289 51.4551 35.7799 51.5121 35.8369C51.7988 36.1235 52.0564 36.4377 52.2811 36.7749C52.5029 37.1078 52.6912 37.4619 52.8431 37.8319C52.9952 38.2028 53.1104 38.5876 53.1871 38.9809C53.2644 39.3806 53.303 39.7868 53.3021 40.1939Z" fill="white"/>
<path d="M51.333 4.32095C50.1979 3.20132 48.8501 2.32034 47.369 1.72995C44.4712 0.578624 41.2429 0.578624 38.345 1.72995C36.8665 2.3196 35.5216 3.20037 34.39 4.31995L32 6.67495L29.61 4.31995C28.4771 3.19981 27.1304 2.31901 25.65 1.72995C22.7522 0.578624 19.5239 0.578624 16.626 1.72995C14.4012 2.61483 12.4956 4.1513 11.159 6.13795C10.2891 7.42614 9.68439 8.87463 9.38005 10.3989C9.07286 11.9411 9.07286 13.5288 9.38005 15.0709C9.68537 16.5925 10.2901 18.0382 11.159 19.3239C11.6005 19.9774 12.1049 20.5859 12.665 21.1409L30.765 39.0159C30.8476 39.0987 30.9384 39.1727 31.036 39.2369C31.2269 39.3622 31.4401 39.4494 31.664 39.4939C31.8822 39.5375 32.1069 39.5375 32.325 39.4939C32.549 39.4494 32.7622 39.3622 32.953 39.2369C33.0507 39.1727 33.1415 39.0987 33.224 39.0159L51.324 21.1409C51.8842 20.5859 52.3886 19.9774 52.83 19.3239C54.1465 17.3806 54.8502 15.0872 54.85 12.7399C54.8506 11.9539 54.7736 11.1698 54.62 10.3989C54.3157 8.87463 53.711 7.42614 52.841 6.13795C52.399 5.4844 51.894 4.87582 51.333 4.32095ZM48.855 18.6279L31.999 35.2899L15.144 18.6279C14.7486 18.2414 14.3929 17.8163 14.082 17.3589C13.4693 16.4575 13.0429 15.4426 12.828 14.3739C12.7201 13.836 12.6658 13.2886 12.666 12.7399C12.6657 12.1879 12.72 11.6373 12.828 11.0959C13.1526 9.47423 13.9599 7.98855 15.144 6.83395C16.7406 5.25724 18.8941 4.37306 21.138 4.37295C21.23 4.37295 21.3224 4.37295 21.415 4.37295C21.5077 4.37295 21.5994 4.37695 21.69 4.38495C21.7814 4.39028 21.872 4.39761 21.962 4.40695C22.052 4.41628 22.141 4.42728 22.229 4.43995C24.0882 4.67446 25.818 5.51597 27.15 6.83395L30.771 10.4019C30.8402 10.4669 30.9137 10.527 30.991 10.5819C31.0663 10.6356 31.1455 10.6834 31.228 10.7249C31.3083 10.7654 31.392 10.7989 31.478 10.8249C31.5628 10.8506 31.6499 10.868 31.738 10.8769C31.7813 10.8901 31.8254 10.9001 31.87 10.9069C31.9576 10.9202 32.0465 10.9202 32.134 10.9069C32.1787 10.9001 32.2228 10.8901 32.266 10.8769C32.3542 10.868 32.4412 10.8506 32.526 10.8249C32.6121 10.7989 32.6957 10.7654 32.776 10.7249C32.8586 10.6834 32.9378 10.6356 33.013 10.5819C33.0904 10.527 33.1639 10.4669 33.233 10.4019L36.85 6.83395C38.1831 5.51806 39.9126 4.67808 41.771 4.44395C41.859 4.43061 41.948 4.41961 42.038 4.41095C42.128 4.40228 42.2187 4.39495 42.31 4.38895C42.4014 4.38361 42.493 4.37961 42.585 4.37695C42.677 4.37428 42.7694 4.37428 42.862 4.37695C45.1064 4.37468 47.2608 5.25921 48.856 6.83795C49.2515 7.22442 49.6073 7.64955 49.918 8.10695C50.5316 9.01056 50.958 10.0279 51.172 11.0989C51.2801 11.6403 51.3344 12.1909 51.334 12.7429C51.3343 13.2916 51.28 13.839 51.172 14.3769C50.9572 15.4456 50.5308 16.4605 49.918 17.3619C49.6068 17.8183 49.2507 18.2424 48.855 18.6279Z" fill="white"/>
<path opacity="0.5" d="M51.334 12.739C51.3343 13.2877 51.28 13.835 51.172 14.373C50.9571 15.4416 50.5308 16.4565 49.918 17.358C49.6072 17.8153 49.2514 18.2404 48.856 18.627L32 35.29L45.8 18.628C46.1275 18.233 46.4171 17.8081 46.665 17.359C46.9178 16.9011 47.13 16.4219 47.299 15.927C47.471 15.4206 47.6005 14.9008 47.686 14.373C47.7747 13.8328 47.8192 13.2863 47.819 12.739C47.8193 12.1883 47.7748 11.6385 47.686 11.095C47.5996 10.5653 47.4692 10.0439 47.296 9.53596C47.1271 9.0403 46.915 8.56045 46.662 8.10196C46.415 7.65322 46.1264 7.22869 45.8 6.83396C45.5276 6.50146 45.2264 6.1936 44.9 5.91396C44.5921 5.65134 44.2611 5.41705 43.911 5.21396C43.5762 5.01861 43.224 4.85458 42.859 4.72396C42.5063 4.59646 42.1423 4.50238 41.772 4.44296C41.86 4.42963 41.949 4.41863 42.039 4.40996C42.129 4.4013 42.2197 4.39396 42.311 4.38796C42.4023 4.38263 42.494 4.37863 42.586 4.37596C42.678 4.3733 42.7703 4.3733 42.863 4.37596C45.1074 4.37369 47.2618 5.25823 48.857 6.83696C49.252 7.22255 49.6074 7.64666 49.918 8.10296C50.5316 9.00657 50.9579 10.0239 51.172 11.095C51.2801 11.6363 51.3343 12.187 51.334 12.739Z" fill="white"/>
<path d="M32 27.223C31.7688 27.2232 31.5398 27.1778 31.3262 27.0894C31.1126 27.0009 30.9185 26.8712 30.7552 26.7076C30.5919 26.544 30.4625 26.3497 30.3744 26.1359C30.2863 25.9222 30.2413 25.6931 30.242 25.462V14.92C30.2364 14.6856 30.2777 14.4525 30.3635 14.2344C30.4493 14.0163 30.5779 13.8175 30.7416 13.6498C30.9054 13.4821 31.101 13.3489 31.317 13.2579C31.533 13.1669 31.7651 13.12 31.9995 13.12C32.2338 13.12 32.4659 13.1669 32.6819 13.2579C32.8979 13.3489 33.0935 13.4821 33.2573 13.6498C33.421 13.8175 33.5496 14.0163 33.6354 14.2344C33.7212 14.4525 33.7625 14.6856 33.757 14.92V25.462C33.7572 25.6929 33.7119 25.9216 33.6237 26.135C33.5354 26.3484 33.4059 26.5423 33.2426 26.7056C33.0793 26.8689 32.8854 26.9984 32.672 27.0867C32.4586 27.1749 32.2299 27.2202 31.999 27.22L32 27.223Z" fill="white"/>
<path d="M37.2692 21.9499H26.7272C26.4928 21.9555 26.2598 21.9142 26.0416 21.8284C25.8235 21.7426 25.6248 21.614 25.4571 21.4503C25.2894 21.2865 25.1561 21.0909 25.0651 20.8749C24.9741 20.6589 24.9272 20.4268 24.9272 20.1924C24.9272 19.9581 24.9741 19.726 25.0651 19.51C25.1561 19.294 25.2894 19.0984 25.4571 18.9346C25.6248 18.7709 25.8235 18.6423 26.0416 18.5565C26.2598 18.4707 26.4928 18.4294 26.7272 18.4349H37.2692C37.5035 18.4294 37.7366 18.4707 37.9547 18.5565C38.1728 18.6423 38.3716 18.7709 38.5393 18.9346C38.707 19.0984 38.8402 19.294 38.9312 19.51C39.0222 19.726 39.0691 19.9581 39.0691 20.1924C39.0691 20.4268 39.0222 20.6589 38.9312 20.8749C38.8402 21.0909 38.707 21.2865 38.5393 21.4503C38.3716 21.614 38.1728 21.7426 37.9547 21.8284C37.7366 21.9142 37.5035 21.9555 37.2692 21.9499Z" fill="white"/>
</svg>
