<svg xmlns="http://www.w3.org/2000/svg" width="19" height="20" viewBox="0 0 19 20">
    <g fill="none" fill-rule="evenodd">
        <g fill="#4c88f9" fill-rule="nonzero" stroke="#4c88f9" stroke-width=".5">
            <path d="M20.571 11c.282 0 .507.225.507.506h0v8.27c1.179.235 2.065 1.277 2.065 2.518 0 1.245-.89 2.283-2.065 2.519h0v3.681c0 .281-.225.506-.507.506-.281 0-.506-.225-.506-.506h0v-3.681C18.89 24.577 18 23.539 18 22.294c0-1.244.89-2.283 2.065-2.519h0v-8.269c0-.281.225-.506.506-.506zm-6 0c.282 0 .507.225.507.506h0v4.026c1.175.236 2.065 1.27 2.065 2.515s-.89 2.283-2.065 2.519h0v7.928c0 .281-.225.506-.507.506-.281 0-.506-.225-.506-.506h0V20.57C12.89 20.334 12 19.295 12 18.05c0-1.244.89-2.282 2.065-2.518h0v-4.026c0-.281.225-.506.506-.506zm12 0c.282 0 .507.225.507.506h0v4.025c1.179.236 2.065 1.27 2.065 2.515 0 1.244-.89 2.282-2.065 2.518h0v7.93c0 .281-.225.506-.507.506-.281 0-.506-.225-.506-.506h0v-7.926C24.89 20.332 24 19.294 24 18.049c0-1.244.89-2.282 2.065-2.518h0v-4.025c0-.281.225-.506.506-.506zm-6 9.738c-.86 0-1.557.698-1.557 1.556 0 .858.698 1.556 1.557 1.556.86 0 1.558-.698 1.558-1.556 0-.858-.698-1.556-1.558-1.556zm-6-4.243c-.86 0-1.557.697-1.557 1.556 0 .858.698 1.555 1.557 1.555.856 0 1.558-.697 1.558-1.555 0-.859-.698-1.556-1.558-1.556zm12 0c-.86 0-1.557.696-1.557 1.554 0 .859.698 1.556 1.557 1.556.86 0 1.558-.697 1.558-1.556 0-.858-.698-1.555-1.558-1.555z" transform="translate(-331 -156) translate(15 146) translate(305)"/>
        </g>
    </g>
</svg>
