<svg width="56" height="66" viewBox="0 0 56 66" fill="none" xmlns="http://www.w3.org/2000/svg">
<path d="M28.644 27.885L28.001 27.621L26.549 26.994C22.0278 25.0685 18.1067 21.964 15.1956 18.0049C12.2844 14.0459 10.4901 9.37764 9.99997 4.48799C9.91092 3.52924 9.54393 2.61733 8.94407 1.86414C8.3442 1.11095 7.53753 0.54923 6.62302 0.247896C5.70851 -0.0534373 4.72592 -0.0812893 3.79581 0.167773C2.8657 0.416834 2.02852 0.931968 1.38697 1.64998C0.925863 2.14734 0.57565 2.73696 0.359471 3.37981C0.143293 4.02265 0.0660815 4.70407 0.13297 5.37898C0.685516 10.945 2.47996 16.3161 5.38407 21.0964C8.28817 25.8768 12.2279 29.9445 16.913 33C17.689 33.511 18.481 34.007 19.305 34.452C19.5482 34.5836 19.8204 34.6524 20.097 34.652C20.3808 34.6534 20.66 34.5796 20.906 34.438C21.8966 33.8854 22.9153 33.3847 23.958 32.938L28.644 30.925C28.9424 30.7989 29.1969 30.5876 29.376 30.3177C29.555 30.0477 29.6504 29.7309 29.6504 29.407C29.6504 29.083 29.555 28.7663 29.376 28.4963C29.1969 28.2263 28.9424 28.0151 28.644 27.889V27.885ZM22.655 29.898C22.226 30.079 21.797 30.278 21.384 30.492C21.07 30.641 20.757 30.792 20.444 30.954C20.3292 30.999 20.2188 31.0542 20.114 31.119C15.4761 28.3975 11.5462 24.6194 8.64429 20.0922C5.74235 15.565 3.95029 10.4166 3.41398 5.06598C3.39412 4.84813 3.42067 4.62857 3.49186 4.42172C3.56304 4.21488 3.67725 4.02547 3.82697 3.86598C3.98351 3.68798 4.17651 3.54576 4.39289 3.44896C4.60926 3.35216 4.84394 3.30305 5.08097 3.30498C5.49448 3.31411 5.89001 3.47584 6.19147 3.75902C6.49293 4.0422 6.67902 4.42686 6.71396 4.83899C7.24866 10.0514 9.10354 15.0413 12.1033 19.3373C15.1031 23.6334 19.1488 27.0936 23.858 29.391L22.655 29.898Z" fill="white"/>
<path opacity="0.5" d="M23.8579 29.386L22.6579 29.898C22.2289 30.079 21.7999 30.278 21.3869 30.492C21.0729 30.641 20.7599 30.792 20.4469 30.954C20.3322 30.999 20.2217 31.0542 20.1169 31.119C19.8699 30.971 19.6389 30.819 19.3909 30.657C19.5069 30.607 19.6219 30.541 19.7369 30.492C20.1499 30.278 22.2119 29.387 22.2119 29.387C17.5029 27.0894 13.4574 23.6292 10.4578 19.3331C7.45821 15.0371 5.60347 10.0473 5.06888 4.83499C5.0401 4.56959 4.95075 4.31435 4.80771 4.08896C4.66467 3.86356 4.47178 3.67403 4.2439 3.53499C4.4985 3.38409 4.78894 3.30431 5.0849 3.30399C5.49857 3.31314 5.89422 3.475 6.19571 3.75839C6.49719 4.04178 6.68319 4.42668 6.7179 4.83899C7.25259 10.0514 9.10747 15.0413 12.1073 19.3373C15.1071 23.6334 19.1527 27.0936 23.8619 29.391L23.8579 29.386Z" fill="white"/>
<path d="M39.088 33C38.312 32.488 37.52 31.993 36.696 31.548C36.4492 31.4168 36.1734 31.3496 35.8938 31.3525C35.6143 31.3555 35.34 31.4286 35.096 31.565C34.1054 32.1176 33.0867 32.6183 32.044 33.065L27.358 35.078C27.0596 35.2041 26.805 35.4154 26.626 35.6853C26.447 35.9553 26.3516 36.2721 26.3516 36.596C26.3516 36.9199 26.447 37.2367 26.626 37.5067C26.805 37.7767 27.0596 37.9879 27.358 38.114L28.001 38.378L29.453 39.005C33.9682 40.9393 37.8838 44.0462 40.7939 48.0035C43.7039 51.9608 45.5025 56.6245 46.003 61.511C46.0921 62.4695 46.4589 63.3811 47.0585 64.1342C47.6581 64.8872 48.4645 65.4489 49.3786 65.7504C50.2928 66.0519 51.2751 66.0801 52.205 65.8316C53.135 65.583 53.9722 65.0684 54.614 64.351C55.0752 63.8537 55.4254 63.2641 55.6416 62.6212C55.8578 61.9784 55.935 61.2969 55.868 60.622C55.3157 55.0558 53.5213 49.6845 50.6172 44.904C47.7131 40.1234 43.7732 36.0555 39.088 33ZM52.172 62.139C52.0155 62.317 51.8225 62.4592 51.6061 62.556C51.3897 62.6528 51.155 62.7019 50.918 62.7C50.5043 62.6911 50.1086 62.5295 49.8069 62.2463C49.5052 61.9631 49.319 61.5783 49.284 61.166C48.7482 55.9541 46.893 50.9647 43.8935 46.6689C40.894 42.3731 36.8492 38.9126 32.141 36.614L33.341 36.103C33.77 35.922 34.199 35.723 34.612 35.509C34.925 35.361 35.239 35.209 35.552 35.047C35.6667 35.002 35.7772 34.9468 35.882 34.882C40.5199 37.6035 44.4497 41.3816 47.3517 45.9088C50.2536 50.436 52.0457 55.5844 52.582 60.935C52.6028 61.1533 52.5771 61.3735 52.5064 61.5811C52.4357 61.7886 52.3217 61.9788 52.172 62.139Z" fill="white"/>
<path opacity="0.5" d="M52.5849 60.935C52.6049 61.1528 52.5785 61.3723 52.5075 61.5791C52.4365 61.786 52.3224 61.9754 52.1729 62.135C52.0163 62.313 51.8233 62.4552 51.607 62.552C51.3906 62.6488 51.1559 62.6979 50.9189 62.696C50.6327 62.6981 50.3519 62.6179 50.1099 62.465C50.2651 62.3789 50.4047 62.2674 50.5229 62.135C50.6724 61.9754 50.7865 61.786 50.8575 61.5791C50.9285 61.3723 50.9549 61.1528 50.9349 60.935C50.4152 55.7293 48.7042 50.7131 45.9345 46.2748C43.1648 41.8365 39.4107 38.0954 34.9629 35.341L35.5569 35.041C35.6716 34.996 35.7821 34.9408 35.8869 34.876C40.5252 37.5983 44.4551 41.3774 47.3568 45.9057C50.2584 50.434 52.0497 55.5835 52.5849 60.935Z" fill="white"/>
<path d="M54.6129 1.64998C53.9714 0.931968 53.1342 0.416834 52.2041 0.167773C51.274 -0.0812893 50.2914 -0.0534373 49.3769 0.247896C48.4624 0.54923 47.6557 1.11095 47.0558 1.86414C46.456 2.61733 46.089 3.52924 45.9999 4.48799C45.4995 9.37441 43.7011 14.038 40.7912 17.9953C37.8813 21.9526 33.9659 25.0595 29.4509 26.994L27.9989 27.621L23.8569 29.386L22.6569 29.897C22.2279 30.078 21.7989 30.277 21.3859 30.491C21.0719 30.64 20.7589 30.791 20.4459 30.953C20.3312 30.998 20.2207 31.0532 20.1159 31.118C19.8359 31.25 19.5719 31.398 19.3079 31.547C18.4829 31.992 17.6909 32.487 16.9159 32.999C12.2307 36.0543 8.29073 40.1221 5.38645 44.9024C2.48217 49.6828 0.687588 55.0539 0.134927 60.62C0.0680388 61.2949 0.14522 61.9763 0.361398 62.6192C0.577576 63.262 0.927821 63.8516 1.38893 64.349C2.03048 65.067 2.86766 65.5821 3.79777 65.8312C4.72788 66.0803 5.71047 66.0524 6.62498 65.7511C7.53949 65.4498 8.34616 64.888 8.94602 64.1348C9.54589 63.3816 9.91287 62.4697 10.0019 61.511C10.492 56.6213 12.2864 51.9531 15.1975 47.994C18.1087 44.035 22.0297 40.9305 26.5509 39.005L28.0029 38.378L32.1439 36.613L33.3439 36.101C33.7729 35.92 34.2019 35.721 34.6149 35.507C34.9289 35.359 35.2419 35.207 35.5549 35.045C35.6696 35 35.7801 34.9448 35.8849 34.88C36.1659 34.748 36.4289 34.599 36.6939 34.451C37.5189 34.005 38.3109 33.51 39.0869 32.999C43.772 29.9436 47.7118 25.8758 50.6159 21.0955C53.52 16.3151 55.3144 10.944 55.8669 5.37799C55.9337 4.70324 55.8565 4.02198 55.6403 3.37931C55.4241 2.73663 55.0739 2.14719 54.6129 1.64998ZM35.0929 31.565C34.1019 32.1176 33.0829 32.6183 32.0399 33.065L27.3539 35.078L25.2539 35.969C20.1896 38.1242 15.7968 41.5997 12.5345 46.0326C9.27212 50.4654 7.25988 55.6929 6.70793 61.169C6.67298 61.5811 6.48686 61.9658 6.1854 62.249C5.88394 62.5321 5.48844 62.6939 5.07493 62.703C4.8379 62.7049 4.60322 62.6558 4.38685 62.559C4.17048 62.4622 3.97747 62.32 3.82093 62.142C3.67121 61.9825 3.55698 61.7931 3.48579 61.5863C3.4146 61.3794 3.38805 61.1598 3.40791 60.942C3.96252 55.4397 5.84366 50.154 8.88993 45.5384C11.9362 40.9229 16.0567 37.1152 20.8979 34.442C21.8886 33.8894 22.9073 33.3887 23.9499 32.942L28.6359 30.929L30.7359 30.038C35.7942 27.874 40.1815 24.3961 43.4425 19.965C46.7036 15.5339 48.7198 10.311 49.2819 4.83798C49.3169 4.42585 49.503 4.0412 49.8044 3.75801C50.1059 3.47483 50.5014 3.31312 50.9149 3.30399C51.152 3.30206 51.3866 3.35116 51.603 3.44795C51.8194 3.54475 52.0124 3.68699 52.1689 3.86499C52.3185 4.02456 52.4325 4.214 52.5035 4.42084C52.5745 4.62768 52.6009 4.84722 52.5809 5.06499C52.0267 10.5669 50.1462 15.8524 47.1007 20.4679C44.0551 25.0834 39.9354 28.8913 35.0949 31.565H35.0929Z" fill="white"/>
<path opacity="0.5" d="M52.5851 5.06599C52.0305 10.5683 50.1493 15.854 47.1031 20.4696C44.0568 25.0851 39.9363 28.8928 35.0951 31.566C34.1041 32.1186 33.0851 32.6193 32.0421 33.066L27.3561 35.079L25.2561 35.97C20.1917 38.1252 15.799 41.6007 12.5366 46.0335C9.27428 50.4664 7.26204 55.6938 6.71008 61.17C6.67514 61.5821 6.48902 61.9668 6.18756 62.2499C5.8861 62.5331 5.4906 62.6949 5.07709 62.704C4.78113 62.7037 4.49068 62.6239 4.23608 62.473C4.46397 62.3339 4.65686 62.1444 4.7999 61.919C4.94294 61.6936 5.03229 61.4384 5.06107 61.173C5.61302 55.6968 7.62526 50.4694 10.8876 46.0365C14.1499 41.6037 18.5427 38.1282 23.6071 35.973L25.7071 35.082L30.3931 33.069C31.4357 32.6222 32.4544 32.1215 33.4451 31.569C38.2863 28.8958 42.4068 25.0881 45.4531 20.4726C48.4993 15.857 50.3805 10.5713 50.9351 5.06898C50.9551 4.8512 50.9287 4.63167 50.8577 4.42483C50.7867 4.21799 50.6726 4.02855 50.5231 3.86898C50.4049 3.73658 50.2653 3.62502 50.1101 3.53898C50.352 3.38607 50.6328 3.30589 50.9191 3.30798C51.1561 3.30605 51.3908 3.35514 51.6071 3.45194C51.8235 3.54874 52.0165 3.69098 52.1731 3.86898C52.3222 4.0282 52.436 4.21715 52.507 4.42344C52.578 4.62973 52.6046 4.8487 52.5851 5.06599Z" fill="white"/>
<path d="M47.3709 8.24998H23.0499C22.6123 8.24998 22.1926 8.07614 21.8832 7.76671C21.5737 7.45727 21.3999 7.03758 21.3999 6.59998C21.3999 6.16237 21.5737 5.74269 21.8832 5.43326C22.1926 5.12382 22.6123 4.94998 23.0499 4.94998H47.3709C47.8085 4.94998 48.2282 5.12382 48.5376 5.43326C48.8471 5.74269 49.0209 6.16237 49.0209 6.59998C49.0209 7.03758 48.8471 7.45727 48.5376 7.76671C48.2282 8.07614 47.8085 8.24998 47.3709 8.24998Z" fill="white"/>
<path d="M16.45 8.24998H8.629C8.19139 8.24998 7.77172 8.07614 7.46228 7.76671C7.15285 7.45727 6.979 7.03758 6.979 6.59998C6.979 6.16237 7.15285 5.74269 7.46228 5.43326C7.77172 5.12382 8.19139 4.94998 8.629 4.94998H16.45C16.8876 4.94998 17.3073 5.12382 17.6167 5.43326C17.9262 5.74269 18.1 6.16237 18.1 6.59998C18.1 7.03758 17.9262 7.45727 17.6167 7.76671C17.3073 8.07614 16.8876 8.24998 16.45 8.24998Z" fill="white"/>
<path d="M43.7578 18.15H36.2498C35.8122 18.15 35.3926 17.9761 35.0831 17.6667C34.7737 17.3573 34.5999 16.9376 34.5999 16.5C34.5999 16.0624 34.7737 15.6427 35.0831 15.3333C35.3926 15.0238 35.8122 14.85 36.2498 14.85H43.7578C44.1954 14.85 44.6152 15.0238 44.9246 15.3333C45.234 15.6427 45.4079 16.0624 45.4079 16.5C45.4079 16.9376 45.234 17.3573 44.9246 17.6667C44.6152 17.9761 44.1954 18.15 43.7578 18.15Z" fill="white"/>
<path d="M29.65 18.15H12.243C11.8054 18.15 11.3857 17.9761 11.0763 17.6667C10.7669 17.3573 10.593 16.9376 10.593 16.5C10.593 16.0624 10.7669 15.6427 11.0763 15.3333C11.3857 15.0238 11.8054 14.85 12.243 14.85H29.65C30.0876 14.85 30.5073 15.0238 30.8167 15.3333C31.1262 15.6427 31.3 16.0624 31.3 16.5C31.3 16.9376 31.1262 17.3573 30.8167 17.6667C30.5073 17.9761 30.0876 18.15 29.65 18.15Z" fill="white"/>
<path d="M43.757 51.15H26.3499C25.9123 51.15 25.4927 50.9761 25.1832 50.6667C24.8738 50.3573 24.7 49.9376 24.7 49.5C24.7 49.0624 24.8738 48.6427 25.1832 48.3333C25.4927 48.0238 25.9123 47.85 26.3499 47.85H43.757C44.1946 47.85 44.6142 48.0238 44.9237 48.3333C45.2331 48.6427 45.407 49.0624 45.407 49.5C45.407 49.9376 45.2331 50.3573 44.9237 50.6667C44.6142 50.9761 44.1946 51.15 43.757 51.15Z" fill="white"/>
<path d="M19.751 51.15H12.243C11.8054 51.15 11.3857 50.9761 11.0763 50.6667C10.7669 50.3573 10.593 49.9376 10.593 49.5C10.593 49.0624 10.7669 48.6427 11.0763 48.3333C11.3857 48.0238 11.8054 47.85 12.243 47.85H19.75C20.1876 47.85 20.6073 48.0238 20.9167 48.3333C21.2262 48.6427 21.4 49.0624 21.4 49.5C21.4 49.9376 21.2262 50.3573 20.9167 50.6667C20.6073 50.9761 20.1876 51.15 19.75 51.15H19.751Z" fill="white"/>
<path d="M32.95 61.05H8.629C8.19139 61.05 7.77172 60.8762 7.46228 60.5667C7.15285 60.2573 6.979 59.8376 6.979 59.4C6.979 58.9624 7.15285 58.5427 7.46228 58.2333C7.77172 57.9238 8.19139 57.75 8.629 57.75H32.95C33.3876 57.75 33.8073 57.9238 34.1167 58.2333C34.4262 58.5427 34.6 58.9624 34.6 59.4C34.6 59.8376 34.4262 60.2573 34.1167 60.5667C33.8073 60.8762 33.3876 61.05 32.95 61.05Z" fill="white"/>
<path d="M47.3709 61.05H39.5499C39.1123 61.05 38.6926 60.8762 38.3832 60.5667C38.0737 60.2573 37.8999 59.8376 37.8999 59.4C37.8999 58.9624 38.0737 58.5427 38.3832 58.2333C38.6926 57.9238 39.1123 57.75 39.5499 57.75H47.3709C47.8085 57.75 48.2282 57.9238 48.5376 58.2333C48.8471 58.5427 49.0209 58.9624 49.0209 59.4C49.0209 59.8376 48.8471 60.2573 48.5376 60.5667C48.2282 60.8762 47.8085 61.05 47.3709 61.05Z" fill="white"/>
<path d="M19.7501 1.64999C18.771 1.64999 17.814 1.94031 17 2.48422C16.1859 3.02814 15.5515 3.80121 15.1768 4.7057C14.8022 5.6102 14.7042 6.60548 14.8952 7.56569C15.0862 8.5259 15.5576 9.4079 16.2499 10.1002C16.9421 10.7924 17.8242 11.2639 18.7844 11.4549C19.7446 11.6459 20.7398 11.5479 21.6443 11.1732C22.5488 10.7985 23.3219 10.1641 23.8658 9.35007C24.4097 8.53604 24.7 7.57901 24.7 6.59999C24.6961 5.28839 24.1733 4.03164 23.2458 3.10419C22.3184 2.17674 21.0617 1.65395 19.7501 1.64999ZM19.7501 8.25C19.4237 8.25 19.1047 8.15323 18.8333 7.97192C18.562 7.79062 18.3505 7.53291 18.2256 7.23141C18.1008 6.92992 18.0681 6.59816 18.1317 6.27809C18.1954 5.95802 18.3525 5.66403 18.5833 5.43327C18.8141 5.20252 19.1081 5.04537 19.4282 4.9817C19.7482 4.91804 20.08 4.95071 20.3815 5.07559C20.683 5.20048 20.9407 5.41196 21.122 5.6833C21.3033 5.95465 21.4 6.27365 21.4 6.59999C21.3987 7.03719 21.2245 7.45611 20.9153 7.76526C20.6062 8.07441 20.1873 8.24868 19.7501 8.25Z" fill="white"/>
<path opacity="0.5" d="M21.4001 6.59998C21.3987 7.03718 21.2245 7.45609 20.9153 7.76524C20.6062 8.07439 20.1873 8.24867 19.7501 8.24998C19.4591 8.24971 19.1738 8.16983 18.925 8.01898C19.1756 7.87631 19.3838 7.66987 19.5287 7.42064C19.6736 7.17141 19.7499 6.88826 19.7499 6.59998C19.7499 6.31169 19.6736 6.02856 19.5287 5.77933C19.3838 5.53009 19.1756 5.32365 18.925 5.18098C19.1738 5.03014 19.4591 4.95025 19.7501 4.94998C20.1873 4.9513 20.6062 5.12556 20.9153 5.43471C21.2245 5.74386 21.3987 6.16277 21.4001 6.59998Z" fill="white"/>
<path d="M32.95 11.55C31.971 11.55 31.0139 11.8403 30.1999 12.3842C29.3859 12.9281 28.7514 13.7012 28.3768 14.6057C28.0021 15.5102 27.9041 16.5055 28.0951 17.4657C28.2861 18.4259 28.7576 19.3079 29.4498 20.0002C30.1421 20.6924 31.0241 21.1639 31.9843 21.3549C32.9445 21.5459 33.9398 21.4479 34.8443 21.0732C35.7488 20.6985 36.5218 20.0641 37.0658 19.2501C37.6097 18.436 37.9 17.479 37.9 16.5C37.896 15.1884 37.3732 13.9316 36.4458 13.0042C35.5183 12.0767 34.2616 11.5539 32.95 11.55ZM32.95 18.15C32.6237 18.15 32.3046 18.0532 32.0333 17.8719C31.7619 17.6906 31.5505 17.4329 31.4256 17.1314C31.3007 16.8299 31.268 16.4982 31.3317 16.1781C31.3954 15.858 31.5525 15.564 31.7833 15.3333C32.014 15.1025 32.308 14.9454 32.6281 14.8817C32.9482 14.818 33.2799 14.8507 33.5814 14.9756C33.8829 15.1005 34.1406 15.312 34.3219 15.5833C34.5032 15.8546 34.6 16.1736 34.6 16.5C34.5987 16.9372 34.4244 17.3561 34.1153 17.6653C33.8061 17.9744 33.3872 18.1487 32.95 18.15Z" fill="white"/>
<path opacity="0.5" d="M34.6 16.5C34.5987 16.9372 34.4244 17.3561 34.1153 17.6652C33.8061 17.9744 33.3872 18.1487 32.95 18.15C32.6591 18.1497 32.3738 18.0698 32.125 17.919C32.3755 17.7763 32.5838 17.5699 32.7286 17.3206C32.8735 17.0714 32.9498 16.7883 32.9498 16.5C32.9498 16.2117 32.8735 15.9286 32.7286 15.6793C32.5838 15.4301 32.3755 15.2236 32.125 15.081C32.3738 14.9301 32.6591 14.8502 32.95 14.85C33.3872 14.8513 33.8061 15.0256 34.1153 15.3347C34.4244 15.6439 34.5987 16.0628 34.6 16.5Z" fill="white"/>
<path d="M23.0499 44.55C22.0708 44.55 21.1138 44.8403 20.2998 45.3842C19.4857 45.9281 18.8513 46.7012 18.4766 47.6057C18.102 48.5102 18.004 49.5055 18.195 50.4657C18.386 51.4259 18.8574 52.3079 19.5497 53.0002C20.2419 53.6924 21.124 54.1639 22.0842 54.3549C23.0444 54.5459 24.0396 54.4479 24.9441 54.0732C25.8486 53.6985 26.6217 53.0641 27.1656 52.2501C27.7095 51.436 27.9998 50.479 27.9998 49.5C27.9959 48.1884 27.4731 46.9316 26.5456 46.0042C25.6182 45.0767 24.3615 44.5539 23.0499 44.55ZM23.0499 51.15C22.7235 51.15 22.4045 51.0532 22.1331 50.8719C21.8618 50.6906 21.6503 50.4329 21.5254 50.1314C21.4006 49.8299 21.3679 49.4982 21.4315 49.1781C21.4952 48.858 21.6524 48.564 21.8831 48.3333C22.1139 48.1025 22.4079 47.9454 22.728 47.8817C23.048 47.818 23.3798 47.8507 23.6813 47.9756C23.9828 48.1005 24.2405 48.312 24.4218 48.5833C24.6031 48.8546 24.6999 49.1736 24.6999 49.5C24.6985 49.9372 24.5243 50.3561 24.2151 50.6653C23.906 50.9744 23.4871 51.1487 23.0499 51.15Z" fill="white"/>
<path opacity="0.5" d="M24.6999 49.5C24.6985 49.9372 24.5243 50.3561 24.2151 50.6652C23.906 50.9744 23.4871 51.1487 23.0499 51.15C22.7589 51.1497 22.4736 51.0698 22.2249 50.919C22.4754 50.7763 22.6836 50.5699 22.8285 50.3206C22.9734 50.0714 23.0497 49.7883 23.0497 49.5C23.0497 49.2117 22.9734 48.9286 22.8285 48.6793C22.6836 48.4301 22.4754 48.2236 22.2249 48.081C22.4736 47.9301 22.7589 47.8502 23.0499 47.85C23.4871 47.8513 23.906 48.0256 24.2151 48.3347C24.5243 48.6439 24.6985 49.0628 24.6999 49.5Z" fill="white"/>
<path d="M36.2501 54.45C35.271 54.45 34.314 54.7403 33.5 55.2842C32.6859 55.8281 32.0515 56.6012 31.6768 57.5057C31.3022 58.4102 31.2042 59.4055 31.3952 60.3657C31.5862 61.3259 32.0576 62.2079 32.7499 62.9002C33.4421 63.5924 34.3242 64.0639 35.2844 64.2549C36.2446 64.4459 37.2398 64.3478 38.1443 63.9732C39.0488 63.5985 39.8219 62.9641 40.3658 62.1501C40.9097 61.336 41.2 60.379 41.2 59.4C41.1961 58.0884 40.6733 56.8316 39.7458 55.9042C38.8184 54.9767 37.5617 54.4539 36.2501 54.45ZM36.2501 61.05C35.9237 61.05 35.6047 60.9532 35.3333 60.7719C35.062 60.5906 34.8505 60.3329 34.7256 60.0314C34.6008 59.7299 34.5681 59.3981 34.6317 59.0781C34.6954 58.758 34.8525 58.464 35.0833 58.2333C35.3141 58.0025 35.6081 57.8454 35.9282 57.7817C36.2482 57.718 36.58 57.7507 36.8815 57.8756C37.183 58.0005 37.4407 58.212 37.622 58.4833C37.8033 58.7546 37.9 59.0736 37.9 59.4C37.8987 59.8372 37.7245 60.2561 37.4153 60.5652C37.1062 60.8744 36.6873 61.0487 36.2501 61.05Z" fill="white"/>
<path opacity="0.5" d="M37.9001 59.4C37.8987 59.8372 37.7245 60.2561 37.4153 60.5653C37.1062 60.8744 36.6873 61.0487 36.2501 61.05C35.9592 61.0494 35.6739 60.9696 35.425 60.819C35.6756 60.6763 35.8838 60.4699 36.0287 60.2207C36.1736 59.9714 36.2499 59.6883 36.2499 59.4C36.2499 59.1117 36.1736 58.8286 36.0287 58.5793C35.8838 58.3301 35.6756 58.1237 35.425 57.981C35.6739 57.8304 35.9592 57.7506 36.2501 57.75C36.6873 57.7513 37.1062 57.9256 37.4153 58.2347C37.7245 58.5439 37.8987 58.9628 37.9001 59.4Z" fill="white"/>
</svg>
