<?xml version="1.0" encoding="UTF-8"?>
<!DOCTYPE svg PUBLIC "-//W3C//DTD SVG 1.1//EN" "http://www.w3.org/Graphics/SVG/1.1/DTD/svg11.dtd">
<!-- Creator: CorelDRAW X7 -->
<svg xmlns="http://www.w3.org/2000/svg" xml:space="preserve" width="103.212mm" height="27.3587mm" version="1.1" style="shape-rendering:geometricPrecision; text-rendering:geometricPrecision; image-rendering:optimizeQuality; fill-rule:evenodd; clip-rule:evenodd"
viewBox="0 0 10968 2907"
 xmlns:xlink="http://www.w3.org/1999/xlink">
 <defs>
  <style type="text/css">
   <![CDATA[
    .fil3 {fill:#1FB6EA}
    .fil2 {fill:#0E4F95}
    .fil1 {fill:#1FB6EA;fill-rule:nonzero}
    .fil0 {fill:#0E4F95;fill-rule:nonzero}
   ]]>
  </style>
 </defs>
 <g id="Layer_x0020_1">
  <metadata id="CorelCorpID_0Corel-Layer"/>
  <g id="_1788750829552">
   <path class="fil0" d="M3666 2234l-192 0c1,-16 2,-32 3,-48l189 0c83,0 152,-40 208,-119 61,-89 92,-212 92,-369 0,-159 -31,-283 -92,-372 -55,-80 -124,-120 -208,-120l-257 0 0 333c-34,-132 -80,-259 -136,-381l397 0c129,0 237,49 326,147 89,97 133,222 133,375 0,54 -7,112 -21,176 -27,118 -80,210 -160,277 -79,67 -174,101 -282,101z"/>
   <path class="fil0" d="M4968 2225c-72,23 -143,35 -214,35 -124,0 -232,-36 -324,-106 -92,-71 -154,-167 -187,-289 -7,-26 -12,-51 -15,-76 -4,-25 -6,-53 -6,-84 0,-165 52,-300 154,-406 103,-105 231,-158 386,-158 66,0 134,11 203,33 106,34 193,98 260,194 66,95 100,206 100,331 0,127 -33,237 -99,332 -66,95 -152,159 -258,194zm-202 -1036c-109,0 -198,43 -269,131 -77,95 -115,224 -115,386 0,21 2,44 5,69 3,25 7,49 12,72 25,116 71,204 136,264 65,61 142,92 231,92 107,0 196,-43 267,-130 78,-94 117,-220 117,-377 0,-158 -39,-284 -117,-377 -71,-87 -160,-130 -267,-130z"/>
   <path class="fil0" d="M5961 2246c-150,0 -274,-51 -373,-152 -99,-102 -148,-234 -148,-396 0,-176 54,-312 162,-407 108,-95 256,-143 445,-143 24,0 49,3 74,8 24,5 60,18 106,39 56,25 107,60 153,103l-30 37 -32 -22c-53,-37 -103,-63 -149,-77 -57,-18 -111,-27 -163,-27 -117,0 -212,43 -284,128 -71,85 -107,204 -107,356 0,156 36,276 107,362 72,86 169,128 290,128 26,0 53,-2 82,-6 28,-4 57,-10 86,-19 47,-14 94,-38 140,-72l25 -21 38 35c-44,44 -102,79 -174,106 -73,27 -155,40 -248,40z"/>
   <polygon class="fil0" points="6734,1207 6734,2234 6585,2234 6585,1207 6389,1207 6389,1159 6927,1159 6927,1207 "/>
   <path class="fil0" d="M7671 2225c-72,23 -143,35 -214,35 -124,0 -232,-36 -324,-106 -91,-71 -154,-167 -186,-289 -7,-26 -13,-51 -16,-76 -4,-25 -5,-53 -5,-84 0,-165 51,-300 154,-406 102,-105 231,-158 385,-158 67,0 134,11 203,33 107,34 193,98 260,194 67,95 100,206 100,331 0,127 -33,237 -98,332 -66,95 -152,159 -259,194zm-202 -1036c-108,0 -198,43 -268,131 -77,95 -115,224 -115,386 0,21 1,44 4,69 3,25 7,49 12,72 26,116 71,204 137,264 65,61 142,92 230,92 107,0 196,-43 268,-130 78,-94 116,-220 116,-377 0,-158 -38,-284 -116,-377 -72,-87 -161,-130 -268,-130z"/>
   <path class="fil0" d="M8701 2234l-332 -572 148 0c74,0 131,-20 171,-60 40,-41 60,-97 60,-170 0,-65 -23,-118 -71,-161 -48,-43 -109,-64 -182,-64l-159 0 0 1027 -151 0 0 -1075 348 0c62,0 118,10 167,30 49,21 89,48 119,83 21,24 37,51 47,82 11,30 17,60 17,90 0,83 -34,149 -103,199 -45,32 -103,55 -173,71l-44 6 315 514 -177 0z"/>
   <polygon class="fil1" points="9204,1207 9204,2234 9055,2234 9055,1207 8859,1207 8859,1159 9397,1159 9397,1207 "/>
   <path class="fil1" d="M10144 2233l-145 -318 -507 0 -142 319 -53 0 499 -1122 501 1122 -153 -1zm-400 -886l-232 520 461 0 -229 -520z"/>
   <path class="fil1" d="M10657 1696l-191 0 0 538 -151 0 0 -1075 342 0c78,0 142,16 193,50 52,33 87,80 106,139 8,23 12,50 12,80 0,19 -1,32 -2,41 -1,9 -4,22 -10,38 -19,60 -54,106 -106,139 -51,34 -115,50 -193,50zm-27 -489l-164 0 0 445 164 0c57,0 104,-21 141,-61 38,-40 56,-95 56,-163 0,-67 -18,-121 -56,-161 -37,-40 -84,-60 -141,-60z"/>
   <path class="fil1" d="M3775 2802l-76 0 0 -137 -139 0 0 137 -75 0 0 -335 75 0 0 133 139 0 0 -133 76 0 0 335zm57 -199l246 0c-9,-53 -44,-80 -104,-80 -34,0 -68,12 -104,35l0 -67c32,-20 70,-30 115,-30 56,0 99,15 130,45 30,29 45,71 45,124 0,53 -15,96 -46,129 -31,32 -72,49 -123,49 -48,0 -86,-16 -115,-47 -30,-31 -44,-73 -44,-124l0 -34zm246 60l-165 0c3,26 11,46 25,61 14,15 32,22 53,22 23,0 42,-8 58,-22 15,-15 25,-35 29,-61zm416 139l-95 0 -98 -146c-2,-2 -5,-9 -9,-18l-1 0 0 164 -75 0 0 -335 75 0 0 158 1 0c2,-4 5,-10 10,-18l92 -140 90 0 -116 160 126 175zm108 0l-76 0 0 -335 76 0 0 335zm-38 -366c-10,0 -19,-3 -26,-10 -6,-6 -10,-14 -10,-22 0,-10 4,-17 11,-23 6,-6 15,-9 25,-9 11,0 19,3 26,9 7,6 10,13 10,23 0,9 -3,16 -10,23 -7,6 -15,9 -26,9zm496 366l-74 0 0 -201c0,-21 1,-45 2,-71l-1 0c-4,20 -8,35 -11,44l-78 228 -62 0 -80 -226c-2,-6 -6,-21 -11,-46l-2 0c2,33 3,62 3,87l0 185 -68 0 0 -335 111 0 68 198c6,16 10,32 12,48l2 0c4,-18 8,-34 13,-48l68 -198 108 0 0 335zm152 0l-76 0 0 -335 76 0 0 335zm-38 -366c-10,0 -19,-3 -26,-10 -6,-6 -10,-14 -10,-22 0,-10 4,-17 11,-23 6,-6 15,-9 25,-9 11,0 19,3 26,9 7,6 10,13 10,23 0,9 -3,16 -10,23 -7,6 -15,9 -26,9zm416 366l-76 0 -139 -211c-8,-12 -13,-21 -16,-27l-1 0c1,11 2,29 2,54l0 184 -72 0 0 -335 82 0 133 204c6,9 11,18 16,27l1 0c-1,-8 -2,-23 -2,-46l0 -185 72 0 0 335zm152 0l-76 0 0 -335 76 0 0 335zm-38 -366c-10,0 -19,-3 -26,-10 -6,-6 -10,-14 -10,-22 0,-10 4,-17 11,-23 6,-6 15,-9 25,-9 11,0 19,3 26,9 7,6 10,13 10,23 0,9 -3,16 -10,23 -7,6 -15,9 -26,9zm246 366l0 -335 122 0c38,0 67,7 87,20 20,14 30,33 30,58 0,18 -6,34 -19,48 -12,13 -27,23 -46,28l0 1c23,3 42,12 57,26 14,15 21,33 21,54 0,31 -11,55 -33,73 -22,18 -52,27 -90,27l-129 0zm76 -280l0 80 33 0c16,0 28,-4 37,-11 9,-8 13,-18 13,-32 0,-24 -18,-37 -55,-37l-28 0zm0 136l0 88 41 0c17,0 31,-4 41,-12 10,-8 15,-19 15,-33 0,-13 -5,-24 -15,-32 -10,-7 -23,-11 -41,-11l-41 0zm307 144l-76 0 0 -335 76 0 0 335zm-38 -366c-10,0 -19,-3 -26,-10 -7,-6 -10,-14 -10,-22 0,-10 4,-17 10,-23 7,-6 16,-9 26,-9 11,0 19,3 26,9 6,6 10,13 10,23 0,9 -4,16 -10,23 -7,6 -15,9 -26,9zm355 366l-270 0 0 -43 172 -231 -159 0 0 -61 257 0 0 42 -168 232 168 0 0 61zm125 0l-75 0 0 -335 75 0 0 335zm-38 -366c-10,0 -19,-3 -25,-10 -7,-6 -11,-14 -11,-22 0,-10 4,-17 11,-23 7,-6 15,-9 25,-9 11,0 19,3 26,9 7,6 10,13 10,23 0,9 -3,16 -10,23 -7,6 -15,9 -26,9zm496 366l-74 0 0 -201c0,-21 1,-45 3,-71l-2 0c-4,20 -8,35 -11,44l-78 228 -62 0 -80 -226c-2,-6 -6,-21 -11,-46l-2 0c2,33 3,62 3,87l0 185 -68 0 0 -335 111 0 69 198c5,16 9,32 11,48l2 0c4,-18 8,-34 13,-48l69 -198 107 0 0 335zm276 0l-199 0 0 -335 75 0 0 274 124 0 0 61zm25 -199l247 0c-9,-53 -44,-80 -105,-80 -33,0 -68,12 -103,35l0 -67c32,-20 70,-30 114,-30 57,0 100,15 130,45 31,29 46,71 46,124 0,53 -16,96 -47,129 -31,32 -71,49 -122,49 -48,0 -86,-16 -116,-47 -29,-31 -44,-73 -44,-124l0 -34zm247 60l-165 0c3,26 11,46 25,61 14,15 32,22 53,22 23,0 42,-8 57,-22 16,-15 25,-35 30,-61zm505 -135l-96 0 0 274 -75 0 0 -274 -96 0 0 -61 267 0 0 61zm307 274l-83 0 -24 -75 -119 0 -23 75 -82 0 122 -335 89 0 120 335zm-124 -133l-36 -112c-3,-9 -4,-19 -6,-30l-1 0c-1,9 -3,19 -6,29l-37 113 86 0zm241 18l0 115 -76 0 0 -335 119 0c84,0 126,35 126,107 0,33 -12,60 -36,81 -24,21 -56,32 -97,32l-36 0zm0 -162l0 104 30 0c40,0 60,-17 60,-53 0,-34 -20,-51 -60,-51l-30 0z"/>
   <path class="fil2" d="M661 2907c-453,-326 -720,-882 -650,-1475 129,-1095 960,-1164 1794,-822 -260,369 -1464,1763 -1144,2297z"/>
   <path class="fil3" d="M2118 777c-541,738 -832,1281 -874,1630 -11,99 2,170 41,213 38,43 107,70 206,82 264,31 521,-22 772,-159 320,-174 497,-413 533,-719 44,-375 -182,-724 -678,-1047z"/>
   <path class="fil2" d="M1495 74c995,220 1739,1108 1739,2169 0,114 -8,227 -25,337 25,-113 41,-228 49,-346l2 -48c1,-30 2,-61 2,-92 0,-192 -24,-378 -70,-555 -34,-132 -80,-259 -136,-381 -250,-537 -709,-958 -1273,-1158 -97,21 -193,46 -288,74z"/>
  </g>
 </g>
</svg>
