<svg width="42" height="42" viewBox="0 0 42 42" fill="none" xmlns="http://www.w3.org/2000/svg">
<path d="M39.457 2.56362C39.2973 2.04609 38.9731 1.5926 38.5319 1.26984C38.0907 0.947066 37.5559 0.772046 37.006 0.770508L36.044 0.770508C35.3637 0.770508 34.7113 1.03632 34.2303 1.50946C33.7492 1.98261 33.479 2.62433 33.479 3.29346C33.479 3.96259 33.7492 4.60431 34.2303 5.07745C34.7113 5.5506 35.3637 5.81641 36.044 5.81641H37.006C37.527 5.816 38.0355 5.6598 38.4642 5.36854C38.8928 5.07728 39.2213 4.66472 39.406 4.18559C39.6874 4.29431 39.9291 4.48378 40.0995 4.72935C40.27 4.97493 40.3615 5.26527 40.362 5.56264V14.6905C37.4068 16.7414 33.8787 17.8424 30.262 17.8424C26.6453 17.8424 23.1172 16.7414 20.162 14.6905V5.56362C20.1625 5.26352 20.2556 4.97064 20.429 4.7237C20.6024 4.47676 20.8479 4.28741 21.133 4.18067C21.3169 4.66072 21.6451 5.07433 22.0738 5.36652C22.5025 5.6587 23.0114 5.81562 23.533 5.81641H24.495C25.1753 5.81641 25.8277 5.5506 26.3087 5.07745C26.7898 4.60431 27.06 3.96259 27.06 3.29346C27.06 2.62433 26.7898 1.98261 26.3087 1.50946C25.8277 1.03632 25.1753 0.770508 24.495 0.770508L23.533 0.770508C22.983 0.771222 22.4478 0.945523 22.0061 1.26777C21.5643 1.59002 21.2394 2.04321 21.079 2.56067C20.3698 2.69576 19.7303 3.06921 19.2702 3.61705C18.8101 4.16489 18.558 4.85303 18.557 5.56362V15.2512C18.5587 16.0917 18.7606 16.9202 19.1464 17.6703C19.5323 18.4203 20.0914 19.071 20.779 19.5702L29.786 26.0846C29.9236 26.1844 30.09 26.2383 30.261 26.2383C30.432 26.2383 30.5984 26.1844 30.736 26.0846L39.743 19.5702C40.4307 19.071 40.9898 18.4204 41.3757 17.6703C41.7616 16.9203 41.9634 16.0918 41.965 15.2512V5.56362C41.964 4.85548 41.7135 4.16958 41.2563 3.62261C40.799 3.07565 40.1632 2.70143 39.457 2.56362ZM37.002 4.23575H36.04C35.7849 4.23575 35.5402 4.13606 35.3598 3.95861C35.1794 3.78116 35.078 3.54048 35.078 3.28952C35.078 3.03857 35.1794 2.79789 35.3598 2.62044C35.5402 2.44299 35.7849 2.34329 36.04 2.34329H37.002C37.2572 2.34329 37.5019 2.44299 37.6823 2.62044C37.8627 2.79789 37.964 3.03857 37.964 3.28952C37.964 3.54048 37.8627 3.78116 37.6823 3.95861C37.5019 4.13606 37.2572 4.23575 37.002 4.23575ZM23.532 2.34428H24.494C24.7491 2.34428 24.9938 2.44397 25.1742 2.62142C25.3547 2.79887 25.456 3.03955 25.456 3.29051C25.456 3.54146 25.3547 3.78214 25.1742 3.95959C24.9938 4.13704 24.7491 4.23674 24.494 4.23674H23.532C23.2769 4.23674 23.0322 4.13704 22.8518 3.95959C22.6714 3.78214 22.57 3.54146 22.57 3.29051C22.57 3.03955 22.6714 2.79887 22.8518 2.62142C23.0322 2.44397 23.2769 2.34428 23.532 2.34428ZM38.793 18.2974L30.257 24.4754L21.725 18.3043C21.1834 17.9113 20.7559 17.3857 20.485 16.7797C23.4418 18.5062 26.8185 19.4136 30.257 19.4059C33.6956 19.4137 37.0722 18.5062 40.029 16.7797C39.7587 17.3838 39.3326 17.908 38.793 18.3003V18.2974Z" fill="white"/>
<path d="M22.188 25.8515C21.9946 24.2955 21.2334 22.8616 20.046 21.8161C18.8585 20.7706 17.3256 20.1847 15.732 20.1672C14.2124 20.172 12.7432 20.7038 11.583 21.6692C10.4231 20.704 8.95429 20.1722 7.43503 20.1672C5.68945 20.1898 4.02407 20.8917 2.80341 22.1192C1.58275 23.3468 0.906266 25 0.922022 26.717C0.922022 28.7826 2.66002 31.5308 6.08802 34.881C7.67042 36.4181 9.3426 37.8632 11.096 39.2089C11.2357 39.3143 11.4069 39.3715 11.583 39.3715C11.7591 39.3715 11.9303 39.3143 12.07 39.2089C14.882 37.0702 17.456 34.6449 19.749 31.9734C19.881 31.8095 19.9413 31.6007 19.9167 31.393C19.8922 31.1853 19.7847 30.9957 19.618 30.8659C19.4513 30.7361 19.2391 30.6768 19.0279 30.7009C18.8167 30.7251 18.624 30.8308 18.492 30.9947C16.4195 33.4144 14.1041 35.6224 11.581 37.5849C8.65703 35.3049 2.52202 29.8656 2.52202 26.717C2.50358 25.4166 3.01063 24.1621 3.9318 23.2291C4.85297 22.2962 6.11295 21.7609 7.43503 21.741C8.10544 21.7402 8.76858 21.8776 9.38173 22.1442C9.99489 22.4109 10.5445 22.8009 10.995 23.2892C11.07 23.3694 11.161 23.4334 11.2624 23.4772C11.3638 23.521 11.4733 23.5436 11.584 23.5436C11.6948 23.5436 11.8043 23.521 11.9057 23.4772C12.0071 23.4334 12.0981 23.3694 12.173 23.2892C12.6236 22.8009 13.1732 22.4109 13.7863 22.1442C14.3995 21.8776 15.0626 21.7402 15.733 21.741C16.9371 21.7579 18.0941 22.204 18.989 22.9965C19.8839 23.789 20.456 24.8741 20.599 26.0502C20.6263 26.2576 20.7363 26.4458 20.9047 26.5734C21.0731 26.7011 21.2862 26.7577 21.497 26.7308C21.7079 26.7039 21.8992 26.5958 22.029 26.4301C22.1588 26.2645 22.2163 26.0549 22.189 25.8475L22.188 25.8515Z" fill="white"/>
<path d="M30.261 30.7056C30.1559 30.7056 30.0519 30.7259 29.9548 30.7655C29.8578 30.805 29.7696 30.863 29.6953 30.936C29.621 31.0091 29.5621 31.0959 29.5219 31.1913C29.4817 31.2868 29.461 31.3891 29.461 31.4925V37.5908C29.461 38.1136 29.2499 38.615 28.874 38.9846C28.4982 39.3543 27.9885 39.562 27.457 39.562C26.9255 39.562 26.4158 39.3543 26.04 38.9846C25.6641 38.615 25.453 38.1136 25.453 37.5908V31.4275C25.4519 30.574 25.1068 29.7558 24.4932 29.1523C23.8796 28.5487 23.0477 28.2092 22.18 28.2082H15.835C15.6357 27.1656 15.0479 26.2337 14.1866 25.5951C13.3254 24.9564 12.2528 24.657 11.1789 24.7554C10.1049 24.8539 9.10705 25.3431 8.38064 26.1273C7.65422 26.9115 7.25159 27.9342 7.25159 28.9951C7.25159 30.056 7.65422 31.0786 8.38064 31.8628C9.10705 32.647 10.1049 33.1363 11.1789 33.2347C12.2528 33.3332 13.3254 33.0338 14.1866 32.3951C15.0479 31.7565 15.6357 30.8246 15.835 29.782H22.175C22.6178 29.7825 23.0422 29.9557 23.3553 30.2636C23.6684 30.5716 23.8445 30.9891 23.845 31.4246V37.5879C23.845 38.5289 24.2251 39.4315 24.9016 40.0969C25.5782 40.7624 26.4957 41.1362 27.4525 41.1362C28.4093 41.1362 29.3269 40.7624 30.0034 40.0969C30.6799 39.4315 31.06 38.5289 31.06 37.5879V31.4895C31.0592 31.2815 30.9747 31.0822 30.825 30.9353C30.6753 30.7884 30.4725 30.7058 30.261 30.7056ZM11.583 31.6892C11.0441 31.6892 10.5172 31.532 10.0691 31.2375C9.62097 30.9429 9.2717 30.5243 9.06545 30.0346C8.8592 29.5448 8.80524 29.0059 8.91038 28.4859C9.01553 27.966 9.27506 27.4884 9.65616 27.1136C10.0373 26.7387 10.5228 26.4835 11.0514 26.38C11.58 26.2766 12.1279 26.3297 12.6258 26.5326C13.1238 26.7354 13.5494 27.079 13.8488 27.5197C14.1482 27.9605 14.308 28.4787 14.308 29.0089C14.3059 29.7186 14.0181 30.3985 13.5077 30.9001C12.9972 31.4017 12.3055 31.6839 11.584 31.6852L11.583 31.6892Z" fill="white"/>
</svg>
