<svg width="66" height="60" viewBox="0 0 66 60" fill="none" xmlns="http://www.w3.org/2000/svg">
<path d="M27.9956 59.0238H26.8195C26.5075 59.0238 26.2084 58.8996 25.9878 58.6786C25.7672 58.4576 25.6433 58.1578 25.6433 57.8452V57.6332C25.6432 57.4416 25.6897 57.2529 25.7788 57.0834C25.8678 56.914 25.9968 56.7688 26.1546 56.6606C26.3123 56.5524 26.494 56.4843 26.6839 56.4624C26.8738 56.4404 27.0662 56.4652 27.2444 56.5346C27.4845 56.6246 27.7392 56.6694 27.9956 56.6667C28.3076 56.6667 28.6067 56.7909 28.8273 57.0119C29.0479 57.2329 29.1718 57.5327 29.1718 57.8452C29.1718 58.1578 29.0479 58.4576 28.8273 58.6786C28.6067 58.8996 28.3076 59.0238 27.9956 59.0238V59.0238Z" fill="white"/>
<path d="M38.1466 16.5934L41.6051 18.3258C41.7651 18.4014 41.9398 18.4406 42.1167 18.4406C42.2936 18.4406 42.4683 18.4014 42.6283 18.3258L46.0729 16.5934H38.1466ZM60.9308 16.5934H51.0616L49.4972 18.9505H59.753V56.3486C59.6822 56.3136 59.6236 56.2671 59.565 56.2304C59.5064 56.1937 59.4836 56.1594 59.4356 56.1243C59.3784 56.0764 59.3241 56.0252 59.2728 55.971C59.0516 55.7549 58.8761 55.4963 58.7568 55.2107C58.6375 54.9252 58.5769 54.6184 58.5785 54.3088V33.0945C58.5776 32.7822 58.4534 32.4829 58.2331 32.2621C58.0127 32.0413 57.714 31.9168 57.4023 31.916H39.064L35.8896 28.7221C35.6653 28.505 35.3663 28.3826 35.0544 28.3804H27.995V20.4479C27.2185 20.1535 26.4306 19.8705 25.6427 19.5638V29.5613C25.6436 29.8736 25.7678 30.1729 25.9881 30.3938C26.2085 30.6146 26.5072 30.739 26.8189 30.7399H34.5701L37.7445 33.9337C37.9688 34.1509 38.2678 34.2732 38.5797 34.2755H56.2237V54.3121C56.2219 54.5251 56.2377 54.7379 56.2709 54.9483C56.2937 55.1235 56.3291 55.2969 56.3768 55.467C56.3829 55.5152 56.3946 55.5626 56.4118 55.6081C56.444 55.7243 56.4834 55.8385 56.5298 55.9498C56.5659 56.0612 56.6092 56.1702 56.6592 56.2761C56.7189 56.4053 56.7857 56.5311 56.8594 56.6529V56.6643C57.2702 57.3818 57.863 57.9777 58.5777 58.3917C59.2924 58.8056 60.1037 59.0228 60.9292 59.0213C61.2409 59.0205 61.5395 58.896 61.7599 58.6752C61.9803 58.4544 62.1045 58.1551 62.1053 57.8428V17.772C62.1045 17.4598 61.9804 17.1607 61.7602 16.9399C61.54 16.7191 61.2415 16.5945 60.93 16.5934H60.9308Z" fill="white"/>
<path d="M64.46 28.3795H60.9315C60.6199 28.3804 60.3212 28.5048 60.1008 28.7257C59.8804 28.9465 59.7562 29.2458 59.7554 29.5581V57.8453C59.7562 58.1576 59.8804 58.4568 60.1008 58.6777C60.3212 58.8985 60.6199 59.0229 60.9315 59.0238C61.5494 59.0239 62.1612 58.902 62.732 58.6652C63.3029 58.4283 63.8215 58.0811 64.2584 57.6433C64.6953 57.2055 65.0419 56.6858 65.2782 56.1138C65.5146 55.5418 65.6363 54.9288 65.6361 54.3097V29.5581C65.6353 29.2458 65.5111 28.9465 65.2907 28.7257C65.0703 28.5048 64.7717 28.3804 64.46 28.3795V28.3795ZM63.2838 54.3097C63.2853 54.7234 63.1773 55.1301 62.9706 55.4884C62.764 55.8466 62.4662 56.1434 62.1077 56.3486V30.7391H63.2838V54.3097Z" fill="white"/>
<path d="M60.9316 56.6667C60.5184 56.6663 60.1127 56.5566 59.7554 56.3486C59.6846 56.3135 59.626 56.2671 59.5674 56.2312C59.5088 56.1953 59.486 56.1602 59.438 56.1251C59.3808 56.0772 59.3265 56.026 59.2752 55.9718C59.054 55.7557 58.8785 55.4971 58.7592 55.2115C58.6399 54.9259 58.5793 54.6192 58.5809 54.3096V33.0937C58.58 32.7814 58.4558 32.4821 58.2354 32.2613C58.0151 32.0404 57.7164 31.916 57.4047 31.9151H39.0647L35.8903 28.7213C35.6656 28.5038 35.366 28.3814 35.0536 28.3795H24.4673C24.1556 28.3804 23.857 28.5048 23.6366 28.7257C23.4162 28.9465 23.292 29.2458 23.2911 29.5581V54.3088C23.2907 55.1726 23.5275 56.0199 23.9756 56.7579C24.4236 57.4959 25.0657 58.0961 25.8315 58.4928H25.8429V58.5042C26.0195 58.5858 26.2075 58.6576 26.3956 58.7285C26.9048 58.9289 27.4479 59.0289 27.995 59.0229H60.93C61.2419 59.0229 61.5411 58.8988 61.7616 58.6778C61.9822 58.4567 62.1061 58.157 62.1061 57.8444C62.1061 57.5318 61.9822 57.2321 61.7616 57.0111C61.5411 56.79 61.2419 56.6659 60.93 56.6659L60.9316 56.6667ZM27.9966 56.6667C27.8626 56.6672 27.7288 56.6555 27.597 56.6316C27.4768 56.6097 27.3587 56.5781 27.2437 56.537C27.2323 56.5256 27.2087 56.5256 27.1965 56.5134C26.7407 56.3546 26.3459 56.0569 26.0674 55.662C25.7889 55.2671 25.6407 54.7948 25.6435 54.3113V30.7407H34.5717L37.7461 33.9345C37.9704 34.1517 38.2694 34.274 38.5812 34.2763H56.2253V54.3129C56.2235 54.5259 56.2393 54.7387 56.2725 54.9491C56.2953 55.1243 56.3306 55.2977 56.3783 55.4678C56.3845 55.516 56.3962 55.5634 56.4133 55.6089C56.4456 55.7251 56.485 55.8393 56.5313 55.9506C56.5675 56.062 56.6107 56.171 56.6608 56.2769C56.7205 56.4061 56.7873 56.5319 56.861 56.6537V56.6651L27.9966 56.6667Z" fill="white"/>
<path d="M46.8192 40.1657H44.4669V37.8086C44.466 37.4957 44.3414 37.196 44.1203 36.9751C43.8992 36.7541 43.5997 36.6301 43.2874 36.6301H38.582C38.2703 36.6309 37.9716 36.7554 37.7513 36.9762C37.5309 37.197 37.4067 37.4963 37.4058 37.8086V40.1657H35.0535C34.7418 40.1665 34.4431 40.291 34.2228 40.5118C34.0024 40.7326 33.8782 41.0319 33.8773 41.3442V46.0583C33.8782 46.3706 34.0024 46.6699 34.2228 46.8907C34.4431 47.1115 34.7418 47.236 35.0535 47.2368H37.4058V49.5939C37.4067 49.9062 37.5309 50.2055 37.7513 50.4263C37.9716 50.6471 38.2703 50.7716 38.582 50.7724H43.2866C43.5983 50.7716 43.897 50.6471 44.1174 50.4263C44.3377 50.2055 44.4619 49.9062 44.4628 49.5939V47.2368H46.8192C47.1309 47.236 47.4295 47.1115 47.6499 46.8907C47.8703 46.6699 47.9945 46.3706 47.9954 46.0583V41.3442C47.9945 41.0319 47.8703 40.7326 47.6499 40.5118C47.4295 40.291 47.1309 40.1665 46.8192 40.1657V40.1657ZM45.643 44.8798H43.2907C42.979 44.8806 42.6804 45.0051 42.46 45.2259C42.2396 45.4467 42.1154 45.746 42.1145 46.0583V48.4154H39.7622V46.0583C39.7614 45.746 39.6372 45.4467 39.4168 45.2259C39.1964 45.0051 38.8977 44.8806 38.5861 44.8798H36.2296V42.5227H38.582C38.8937 42.5219 39.1923 42.3974 39.4127 42.1766C39.6331 41.9557 39.7573 41.6565 39.7581 41.3442V38.9871H42.1105V41.3442C42.1113 41.6565 42.2355 41.9557 42.4559 42.1766C42.6763 42.3974 42.975 42.5219 43.2866 42.5227H45.639L45.643 44.8798Z" fill="white"/>
<path opacity="0.5" d="M45.6406 42.5227V44.8798H43.2874C42.9757 44.8806 42.6771 45.0051 42.4567 45.2259C42.2363 45.4467 42.1121 45.746 42.1113 46.0583V48.4154H39.7589V46.0583C39.7581 45.746 39.6339 45.4467 39.4135 45.2259C39.1931 45.0051 38.8944 44.8806 38.5828 44.8798H42.1113V41.3442C42.1121 41.6565 42.2363 41.9558 42.4567 42.1766C42.6771 42.3974 42.9757 42.5219 43.2874 42.5227H45.6406Z" fill="white"/>
<path d="M50.9443 21.6615C50.1576 21.9632 49.4724 22.4821 48.968 23.1581C49.7087 23.5708 50.4266 24.0063 51.0151 24.3953C51.3049 24.072 51.6867 23.8457 52.1091 23.7469C52.2042 23.715 52.3029 23.6953 52.4029 23.6882C52.4996 23.6687 52.5982 23.6607 52.6968 23.6646C53.3034 23.6619 53.8866 23.899 54.3198 24.3244C53.934 23.7241 53.0386 22.8637 50.9443 21.6615ZM50.3444 26.0224C50.3427 25.7188 50.4028 25.4179 50.5211 25.1383C49.7568 25.2093 48.8858 25.2329 48.0629 25.2566C48.0155 25.5091 47.9918 25.7655 47.9921 26.0224C47.988 26.5355 48.0706 27.0457 48.2363 27.5312C49.2008 27.5076 50.0473 27.4725 50.7888 27.4015C50.4978 27.001 50.3421 26.5178 50.3444 26.0224V26.0224Z" fill="white"/>
<path d="M37.6655 23.6646H31.525C31.2696 23.6641 31.0213 23.5805 30.8174 23.4263C30.6136 23.272 30.4653 23.0556 30.3949 22.8096C30.3246 22.5635 30.3359 22.3012 30.4273 22.0622C30.5187 21.8232 30.6851 21.6205 30.9016 21.4845C33.3133 22.3213 35.607 23.0635 37.6655 23.6646Z" fill="white"/>
<path d="M43.2874 26.0225C43.2862 26.2598 43.2137 26.4912 43.0794 26.6867C42.9452 26.8822 42.7553 27.0327 42.5345 27.1186H42.5215C40.3808 26.6586 37.4872 25.8691 34.194 24.844H42.1145C42.4256 24.8457 42.7235 24.9705 42.9431 25.1912C43.1628 25.412 43.2866 25.7107 43.2874 26.0225V26.0225Z" fill="white"/>
<path d="M52.6976 54.3096H24.4673C24.1554 54.3096 23.8562 54.1854 23.6356 53.9644C23.4151 53.7434 23.2911 53.4436 23.2911 53.1311C23.2911 52.8185 23.4151 52.5188 23.6356 52.2978C23.8562 52.0767 24.1554 51.9526 24.4673 51.9526H52.6976C53.0095 51.9526 53.3087 52.0767 53.5293 52.2978C53.7498 52.5188 53.8738 52.8185 53.8738 53.1311C53.8738 53.4436 53.7498 53.7434 53.5293 53.9644C53.3087 54.1854 53.0095 54.3096 52.6976 54.3096V54.3096Z" fill="white"/>
<path opacity="0.5" d="M58.5783 34.273H53.8737V56.6667H58.5783V34.273Z" fill="white"/>
<path opacity="0.5" d="M53.8737 56.6667H31.525C37.4522 56.6665 43.1365 54.3071 47.3277 50.1075C51.5188 45.9079 53.8735 40.2121 53.8737 34.273V56.6667Z" fill="white"/>
<path opacity="0.5" d="M42.1112 41.3442V44.8798H38.5828C39.5181 44.8782 40.4147 44.5053 41.0761 43.8425C41.7375 43.1798 42.1097 42.2814 42.1112 41.3442Z" fill="white"/>
<path opacity="0.5" d="M59.7545 17.772H57.4022V56.6667H59.7545V17.772Z" fill="white"/>
<path opacity="0.5" d="M63.2839 30.7366H62.1078V56.6667H63.2839V30.7366Z" fill="white"/>
<path d="M54.6266 25.2788C54.6352 25.5741 54.5588 25.8656 54.4065 26.1185C54.2542 26.3715 54.0325 26.5752 53.7679 26.7053C52.8342 27.1397 51.8212 27.3765 50.7921 27.401C50.0514 27.4719 49.204 27.507 48.2395 27.5307C47.4158 27.5421 46.5107 27.5543 45.5225 27.5543C44.5151 27.5027 43.5147 27.3566 42.5345 27.118H42.5231C40.3824 26.658 37.4888 25.8685 34.1956 24.8433C32.2421 24.2422 30.1494 23.5465 27.9965 22.7921C27.22 22.5091 26.4321 22.2261 25.6442 21.9439C25.612 21.9341 25.5805 21.9224 25.5497 21.9088C24.7968 21.638 24.0439 21.355 23.3032 21.072C20.4096 19.9758 17.516 18.7883 14.7868 17.5715C14.1047 17.2648 13.4227 16.959 12.7633 16.6523C5.55091 13.257 0.048584 9.72221 0.048584 7.04544C0.048584 5.67851 1.03672 2.49606 10.2816 2.49606C16.7037 2.49606 24.0911 5.8669 24.3964 6.008C24.4571 6.03221 24.5124 6.06825 24.5592 6.11403C24.7843 6.26229 24.9486 6.48684 25.0219 6.74655C25.0953 7.00626 25.0729 7.28377 24.9588 7.52828C24.8284 7.80104 24.5966 8.01176 24.3129 8.11528C24.0293 8.2188 23.7165 8.20688 23.4416 8.08206C23.418 8.07065 22.5463 7.66936 21.1715 7.15065C18.5603 6.17194 14.1495 4.76994 10.2792 4.76994C9.78509 4.76994 9.32602 4.78136 8.87916 4.80501H8.86777C6.981 4.78902 5.11111 5.16213 3.3744 5.90116C2.64184 6.27797 2.31626 6.7029 2.31626 7.043C2.31626 9.49467 14.1609 15.1875 25.6417 19.5599C26.4296 19.8666 27.2175 20.1496 27.994 20.444C28.9822 20.798 29.9475 21.1511 30.899 21.4814C33.31 22.3182 35.6037 23.0604 37.6622 23.6615C40.2093 24.5053 42.8463 25.0472 45.5193 25.2764C46.0719 25.2764 47.0251 25.2764 48.0596 25.2527C48.8833 25.2291 49.7535 25.2054 50.5178 25.1345C51.0118 25.0994 51.4709 25.0398 51.8355 24.9811C51.6117 24.8041 51.3301 24.6043 51.0118 24.3915C50.4233 24.0024 49.7095 23.5661 48.9655 23.1542C48.7775 23.0596 48.6009 22.9658 48.4129 22.8712C48.27 22.7973 48.1446 22.6935 48.0452 22.5668C47.9458 22.4402 47.8747 22.2937 47.8366 22.1372C47.7966 21.9817 47.7895 21.8196 47.8159 21.6613C47.8422 21.503 47.9014 21.352 47.9896 21.218L49.4954 18.9433L51.0599 16.5862L52.013 15.1598L50.9776 14.1223L46.0728 16.5854L42.6265 18.3177C42.4665 18.3934 42.2918 18.4326 42.1149 18.4326C41.938 18.4326 41.7633 18.3934 41.6033 18.3177L38.1449 16.5854L35.1715 15.1051L34.7832 14.9045C34.5244 14.7623 34.3307 14.525 34.243 14.2425C34.1553 13.9601 34.1804 13.6546 34.313 13.3903C34.4456 13.1261 34.6754 12.9237 34.9539 12.8258C35.2325 12.7279 35.5381 12.7421 35.8064 12.8655L42.1112 16.0243L50.6976 11.722C50.9118 11.6148 51.1542 11.5776 51.3906 11.6156C51.627 11.6537 51.8455 11.7651 52.0154 11.9341L54.2856 14.2088C54.4732 14.3941 54.5901 14.6394 54.6159 14.9022C54.6416 15.1649 54.5745 15.4284 54.4264 15.6467L53.8029 16.5895L52.2385 18.9466L50.5796 21.4455C50.709 21.5165 50.8238 21.5866 50.9443 21.6576C53.0378 22.8598 53.9323 23.7202 54.3197 24.3213C54.3228 24.3213 54.3257 24.3225 54.3278 24.3247C54.3299 24.3268 54.3311 24.3297 54.3311 24.3327C54.5301 24.6073 54.6338 24.9396 54.6266 25.2788V25.2788Z" fill="white"/>
<path d="M49.7462 5.1042L45.1938 0.554833C45.0506 0.406721 44.8696 0.300903 44.6705 0.248974C44.4714 0.197044 44.2618 0.200997 44.0648 0.260398L24.5625 6.11797L21.3279 7.09668C21.2744 7.10903 21.2229 7.1288 21.1748 7.15541C20.9852 7.24107 20.8227 7.3774 20.7053 7.54944C20.5879 7.72148 20.5199 7.9226 20.509 8.13075C20.4981 8.33891 20.5446 8.54606 20.6433 8.7295C20.7421 8.91295 20.8894 9.0656 21.069 9.17073L32.4318 16.007C32.6107 16.1112 32.8134 16.1674 33.0203 16.1701C33.2181 16.1652 33.4119 16.1126 33.5852 16.0168L35.1732 15.109L37.5491 13.7421L49.4996 6.90584C49.6518 6.81669 49.7818 6.69398 49.8797 6.54701C49.9775 6.40005 50.0407 6.23269 50.0645 6.05762C50.0879 5.88488 50.0714 5.70906 50.0162 5.54374C49.961 5.37842 49.8687 5.22804 49.7462 5.1042ZM33.0309 13.7062L24.4445 8.54354L44.0608 2.63866L47.0838 5.66777L33.0309 13.7062Z" fill="white"/>
<path d="M11.094 7.83645C10.9919 7.94503 10.8692 8.03217 10.7332 8.0928C10.5971 8.15343 10.4504 8.18634 10.3016 8.1896C10.1527 8.19286 10.0047 8.16643 9.86617 8.11182C9.72762 8.05721 9.60129 7.97552 9.49455 7.87152C7.78541 6.50988 5.64197 5.81454 3.46072 5.91408C3.43309 5.91598 3.40537 5.91209 3.37932 5.90266C3.09193 5.88575 2.82197 5.75899 2.62509 5.54851C2.42822 5.33804 2.31944 5.0599 2.32119 4.77143C2.32119 4.4686 2.44124 4.17817 2.65495 3.96403C2.86865 3.7499 3.1585 3.6296 3.46072 3.6296C5.33005 3.60858 7.17992 4.01147 8.87187 4.80813H8.88327C9.68329 5.16465 10.4218 5.64614 11.0712 6.23462C11.2858 6.44424 11.4087 6.73055 11.4129 7.03082C11.4172 7.33108 11.3025 7.62079 11.094 7.83645Z" fill="white"/>
<path d="M9.76482 31.9918L14.3132 34.2697C14.5445 34.3863 14.8085 34.4206 15.0618 34.3668C15.3151 34.3129 15.5425 34.1743 15.7067 33.9737L25.9405 21.4413C26.1141 21.2054 26.1906 20.9117 26.154 20.6209C26.1175 20.3301 25.9708 20.0646 25.7442 19.8792C25.5177 19.6938 25.2287 19.6028 24.9371 19.625C24.6454 19.6472 24.3734 19.7809 24.1775 19.9985L14.5191 31.8246L11.5995 30.3606L14.7885 17.5778C14.8361 17.429 14.8526 17.2721 14.8372 17.1166C14.8217 16.9611 14.7746 16.8105 14.6987 16.674C14.6228 16.5375 14.5198 16.4181 14.396 16.3231C14.2722 16.2282 14.1302 16.1596 13.979 16.1218C13.8277 16.084 13.6702 16.0778 13.5164 16.1034C13.3626 16.129 13.2157 16.186 13.0847 16.2708C12.9538 16.3556 12.8416 16.4664 12.7551 16.5964C12.6686 16.7264 12.6097 16.8728 12.5819 17.0265L9.17063 30.6983C9.10878 30.9494 9.13389 31.2142 9.24184 31.4492C9.34979 31.6842 9.53418 31.8755 9.76482 31.9918V31.9918Z" fill="white"/>
<path opacity="0.5" d="M47.9928 15.4149C47.9928 15.4149 47.3344 22.4869 37.6654 23.6654L39.7589 26.0225H47.9928L54.6266 25.2803L49.169 21.3084L52.6975 15.4149L52.0154 11.938L47.9928 15.4149Z" fill="white"/>
<path opacity="0.5" d="M44.064 2.63867C44.064 2.63867 41.2257 8.47261 32.7012 14.2364L46.8159 7.16439L49.1683 5.98587L44.064 2.63867Z" fill="white"/>
<path opacity="0.5" d="M23.2918 22.4861L13.8817 21.3076L14.7876 17.5771L24.468 21.3076L23.2918 22.4861Z" fill="white"/>
</svg>
