<svg width="41" height="33" viewBox="0 0 41 33" fill="none" xmlns="http://www.w3.org/2000/svg">
<path d="M36.1079 9.8108C35.7881 7.30301 34.554 4.99455 32.6347 3.31403C30.7154 1.63352 28.2414 0.695133 25.6719 0.6731C23.034 0.666261 20.4942 1.65602 18.5769 3.43802C16.6596 1.65602 14.1198 0.666261 11.4819 0.6731C8.6553 0.70915 5.9586 1.84641 3.98328 3.83544C2.00797 5.82448 0.915294 8.5029 0.944923 11.2833C0.995006 12.6354 1.34483 13.9603 1.96992 15.1656H1.71492C1.51071 15.1656 1.31485 15.2454 1.17045 15.3874C1.02605 15.5294 0.944923 15.7221 0.944923 15.9229C0.944923 16.1238 1.02605 16.3164 1.17045 16.4585C1.31485 16.6005 1.51071 16.6803 1.71492 16.6803H2.78992C4.71132 19.6624 6.99962 22.3998 9.60292 24.8305C12.2935 27.4402 15.1335 29.8967 18.1089 32.1879C18.2432 32.2888 18.4074 32.3434 18.5764 32.3434C18.7454 32.3434 18.9097 32.2888 19.0439 32.1879C19.0759 32.1633 22.3349 29.7052 25.9439 26.3561C26.0855 26.2167 26.1664 26.0286 26.1693 25.8317C26.1722 25.6347 26.097 25.4443 25.9596 25.301C25.8222 25.1577 25.6335 25.0726 25.4334 25.0639C25.2333 25.0552 25.0376 25.1236 24.8879 25.2544C22.1339 27.8118 19.5879 29.8341 18.5739 30.6249C15.8178 28.472 13.1807 26.1756 10.6739 23.7456C8.40634 21.602 6.36926 19.2344 4.59492 16.6803H11.4879C11.6551 16.6803 11.8178 16.6267 11.9513 16.5277C12.0848 16.4286 12.1819 16.2896 12.2279 16.1315L13.5729 11.5193L17.2979 23.2587C17.3468 23.4128 17.4445 23.5475 17.5767 23.6431C17.709 23.7387 17.8688 23.7903 18.0329 23.7903C18.197 23.7903 18.3569 23.7387 18.4891 23.6431C18.6213 23.5475 18.719 23.4128 18.7679 23.2587L20.8309 16.7551H24.2679C24.4721 16.7551 24.668 16.6753 24.8124 16.5332C24.9568 16.3912 25.0379 16.1986 25.0379 15.9977C25.0379 15.7968 24.9568 15.6042 24.8124 15.4621C24.668 15.3201 24.4721 15.2403 24.2679 15.2403H20.2679C20.1037 15.2403 19.9439 15.292 19.8116 15.3877C19.6794 15.4835 19.5817 15.6183 19.5329 15.7724L18.0329 20.4938L14.2809 8.6531C14.2315 8.49762 14.1325 8.36195 13.9985 8.26621C13.8645 8.17048 13.7027 8.1198 13.5371 8.12167C13.3715 8.12355 13.2109 8.1779 13.0792 8.27664C12.9475 8.37538 12.8517 8.51326 12.8059 8.66982L10.9119 15.1616H3.68792C2.97927 13.98 2.56785 12.649 2.48792 11.2793C2.45773 8.89994 3.38835 6.60593 5.07561 4.90061C6.76286 3.19528 9.06894 2.21792 11.4879 2.18294C12.7174 2.18122 13.9336 2.43294 15.0582 2.92187C16.1827 3.4108 17.1906 4.12609 18.0169 5.02162C18.089 5.09852 18.1765 5.15988 18.2739 5.20186C18.3714 5.24383 18.4766 5.2655 18.5829 5.2655C18.6893 5.2655 18.7945 5.24383 18.8919 5.20186C18.9893 5.15988 19.0768 5.09852 19.1489 5.02162C19.9752 4.12609 20.9831 3.4108 22.1076 2.92187C23.2322 2.43294 24.4484 2.18122 25.6779 2.18294C27.764 2.20253 29.7792 2.93019 31.3827 4.24285C32.9862 5.55552 34.0796 7.37263 34.4779 9.38687C32.7683 9.16489 31.037 9.59217 29.6365 10.5817C28.236 11.5712 27.2716 13.0486 26.9396 14.713C26.6077 16.3774 26.9331 18.1037 27.8498 19.5403C28.7664 20.977 30.2053 22.016 31.8734 22.4457C33.5415 22.8755 35.3134 22.6637 36.8284 21.8536C38.3434 21.0434 39.4874 19.6957 40.0276 18.085C40.5679 16.4743 40.4636 14.7215 39.7361 13.1838C39.0086 11.646 37.7126 10.4387 36.1119 9.80785L36.1079 9.8108ZM33.5899 21.1479C32.5543 21.1479 31.542 20.8458 30.6809 20.2799C29.8199 19.714 29.1488 18.9096 28.7525 17.9686C28.3562 17.0275 28.2525 15.992 28.4545 14.9929C28.6565 13.9939 29.1552 13.0762 29.8875 12.356C30.6198 11.6357 31.5527 11.1452 32.5684 10.9465C33.5841 10.7478 34.6369 10.8498 35.5936 11.2396C36.5504 11.6294 37.3681 12.2895 37.9435 13.1364C38.5188 13.9834 38.8259 14.9791 38.8259 15.9977C38.8243 17.3631 38.2722 18.6722 37.2906 19.6377C36.309 20.6032 34.9781 21.1463 33.5899 21.1479Z" fill="white"/>
</svg>
